<?xml version="1.0" encoding="UTF-8" standalone="no"?>
<svg
   xmlns:amcharts="http://amcharts.com/ammap"
   xmlns:dc="http://purl.org/dc/elements/1.1/"
   xmlns:cc="http://creativecommons.org/ns#"
   xmlns:rdf="http://www.w3.org/1999/02/22-rdf-syntax-ns#"
   xmlns:svg="http://www.w3.org/2000/svg"
   xmlns="http://www.w3.org/2000/svg"
   xmlns:sodipodi="http://sodipodi.sourceforge.net/DTD/sodipodi-0.dtd"
   xmlns:inkscape="http://www.inkscape.org/namespaces/inkscape"
   version="1.1"
   id="svg25"
   sodipodi:docname="laosHigh.svg"
   width="699.66113"
   height="836.01172"
   inkscape:version="1.0.1 (3bc2e813f5, 2020-09-07)">
  <metadata
     id="metadata29">
    <rdf:RDF>
      <cc:Work
         rdf:about="">
        <dc:format>image/svg+xml</dc:format>
        <dc:type
           rdf:resource="http://purl.org/dc/dcmitype/StillImage" />
      </cc:Work>
    </rdf:RDF>
  </metadata>
  <sodipodi:namedview
     pagecolor="#ffffff"
     bordercolor="#666666"
     borderopacity="1"
     objecttolerance="10"
     gridtolerance="10"
     guidetolerance="10"
     inkscape:pageopacity="0"
     inkscape:pageshadow="2"
     inkscape:window-width="1838"
     inkscape:window-height="1051"
     id="namedview27"
     showgrid="false"
     inkscape:zoom="0.77369267"
     inkscape:cx="-24.991214"
     inkscape:cy="8.0922089"
     inkscape:window-x="73"
     inkscape:window-y="-9"
     inkscape:window-maximized="1"
     inkscape:current-layer="svg25"
     inkscape:document-rotation="0" />
  <defs
     id="defs4">
    <style
       type="text/css"
       id="style2">
			.land
			{
				fill: #CCCCCC;
				fill-opacity: 1;
				stroke:white;
				stroke-opacity: 1;
				stroke-width:0.5;
			}
		</style>
    <amcharts:ammap
       projection="mercator"
       leftLongitude="100.083214"
       topLatitude="22.502872"
       rightLongitude="107.694830"
       bottomLatitude="13.909720" />
    <!-- All areas are listed in the line below. You can use this list in your script. -->
    <!--{id:"LA-XE"},{id:"LA-AT"},{id:"LA-KH"},{id:"LA-BL"},{id:"LA-PH"},{id:"LA-OU"},{id:"LA-LP"},{id:"LA-HO"},{id:"LA-XI"},{id:"LA-VI"},{id:"LA-VT"},{id:"LA-SV"},{id:"LA-SL"},{id:"LA-CH"},{id:"LA-XA"},{id:"LA-LM"},{id:"LA-BK"}-->
  </defs>
  <g
     id="g23"
     transform="translate(-0.16914218,0.25)"
     style="fill:#253680;fill-opacity:1;stroke:none">
    <path
       id="LA-XE"
       title="Xékong"
       class="land"
       d="m 668.4,630.76 -2.58,-0.78 -2.13,-1.91 -3.43,-4.4 -2.4,-1.62 -1.44,-0.42 -1.29,-0.21 -1.25,-0.36 -1.42,-0.88 -1.14,-1.05 -0.56,-0.75 v 0.02 l -0.07,0.22 -1.36,2.5 -1.86,1.87 -1.71,2.17 -0.49,1.87 -0.69,1.66 -3.36,1.04 -2.19,1.61 -2.28,1.08 -2.56,-0.7 -0.82,0.94 -1.2,0.74 -3.32,-0.1 -3.16,-0.56 -2.06,-1.13 -2.28,-0.2 -1.52,2.52 -0.76,2.94 0.68,1.41 0.37,1.52 -0.95,0.85 -1.16,0.8 -4.29,4.61 -3.23,4.75 -2.44,5.21 -2,1.65 0.27,2.24 2.28,1.57 1.82,1.95 -1.38,1.18 -1.01,2.04 1.61,2.57 0.67,3.04 -0.53,0.55 -0.64,1.05 0.02,1.23 0.23,1.21 0.22,2.19 -1.06,1.33 -4.74,-0.72 -3.27,2.12 -5.48,0.06 -3.42,-0.6 -3.13,0.52 -0.99,2.37 -1.93,1.36 -2.59,-0.53 -2.3,-1.17 -2.45,-0.33 -2.16,0.85 -0.49,2.39 -1.04,0.31 -1.03,0.79 1.52,4.57 5.26,1.93 4.73,1.77 4.28,5.4 3.13,1.34 3.25,0.14 2.03,0.67 9.63,7.69 0.5,8.12 0.53,0.08 0.61,-0.14 2.02,-0.88 1.15,-2.22 0.93,-1.09 0.78,-1.17 0.2,-1.28 0.37,-1.29 1.98,-1.75 2.43,-1.48 3,-0.35 3,0.55 2.39,1.67 2.66,0.68 3.22,-0.09 3.01,-1.27 1.98,-0.5 2.07,-0.11 2.58,0.61 2.26,-1.17 2.17,-1.61 6.57,-0.48 6.42,2.17 1.76,1.83 1.62,2.27 1.65,1.85 2.17,1.33 2.84,1.16 2.87,0.71 1.98,-1.08 1.65,-1.79 4.03,0.63 2.57,5.21 2.01,1.75 0.86,2.3 -1.48,2.68 -0.1,1.19 v 0.03 l 1.53,-0.46 1.5,-0.15 2.53,0.44 1.42,-0.14 1.03,-1.05 0.08,-1.02 -0.85,-1.73 -0.03,-0.94 0.42,-0.72 1.31,-1 0.57,-0.56 0.96,-1.43 0.51,-1.82 0.21,-3.13 0.34,-0.89 0.88,-0.81 0.54,0.25 0.45,0.46 0.6,-0.19 0.26,-0.58 0.7,-4.55 -0.02,-1.47 -0.6,-1.33 -1.35,-1.48 -4.12,-3.14 -1.09,-1.22 -0.62,-1.71 -0.21,-3.68 -0.12,-0.33 -0.3,-0.78 -1.62,-0.44 -3.97,0.61 -1.72,-1.02 -0.4,-1.71 0.05,-2.26 -0.25,-1.91 -1.27,-0.66 -0.67,0.38 -0.53,-0.01 -0.4,-0.37 -0.28,-0.73 v 0 l -0.51,-1.17 -0.45,-0.11 -0.47,0.35 -0.54,0.16 -1.83,-0.47 -0.67,0.02 -0.93,0.68 -0.58,0.86 -0.65,0.39 -1.14,-0.72 -4.89,-8.89 -1.18,-1.06 -3.53,-1.81 -1.54,-1.2 -0.89,-1.34 -0.42,-1.52 -0.42,-3.98 -0.4,-1.38 -0.96,-1.03 -5.08,-3 -1.06,-1.41 0.13,-2 2.31,-5.21 1.02,-1.04 1.14,-0.26 0.94,0.28 0.86,0.42 0.84,0.14 0.78,-0.21 6.41,-4.19 1.66,-0.64 3.52,-0.63 1.34,-0.65 1.39,-1.6 2.53,-4.59 1.36,-1.19 1.11,-1.35 -0.11,-0.86 -0.63,-0.77 -0.43,-1.09 0.11,-1.65 0.01,-0.19 0.21,-1.1 -0.43,-0.47 -1.8,0.06 -5.14,1.33 z"
       style="fill:#253680;fill-opacity:1;stroke:none" />
    <path
       id="LA-AT"
       title="Attapu"
       class="land"
       d="m 673.1,716.9 -2.87,-0.71 -2.84,-1.16 -2.17,-1.33 -1.65,-1.85 -1.62,-2.27 -1.76,-1.83 -6.42,-2.17 -6.57,0.48 -2.17,1.61 -2.26,1.17 -2.58,-0.61 -2.07,0.11 -1.98,0.5 -3.01,1.27 -3.22,0.09 -2.66,-0.68 -2.39,-1.67 -3,-0.55 -3,0.35 -2.43,1.48 -1.98,1.75 -0.37,1.29 -0.2,1.28 -0.78,1.17 -0.93,1.09 -1.15,2.22 -2.02,0.88 -0.09,0.37 -0.21,0.33 1.63,1.12 2.03,0.41 3.78,-0.88 1.33,1.28 0.99,1.73 1.27,1.05 1.1,1.49 0.94,4.79 0.01,4.86 -1.73,2.9 1.45,3.85 -2.05,-0.26 -3.83,1.08 -1.01,1.22 -1.65,1.34 -1.73,2.06 -0.16,2.66 -1.39,2.26 -2.79,0.54 -2.78,-0.12 -1.87,1.3 -4.7,-1.56 -2.6,-0.19 -2.44,-1.51 -1.86,-2.32 -0.09,-2.48 0.46,-2.56 -0.27,-1.18 0.11,-1.36 1.03,-2.45 0.32,-2.94 -1.9,-1.9 -2.5,0.95 -2.09,1.77 -2.18,-1.14 -1.11,-2.63 -2.3,-1.2 h -2.71 l -2.21,1.27 -1.33,2.47 -3.96,3.07 -4.24,4.31 -3.85,5.97 0.25,7.03 1.34,2.6 1.85,2.16 2.6,1.48 2.28,1.84 1.93,7.66 1.67,1.74 1.92,1.61 1.66,2.42 0.39,2.67 0.01,1.26 0.58,1.13 -1.07,2.47 -0.01,0.02 4.97,-0.69 2.35,-0.98 0.95,-1.86 0.37,-0.06 0.68,-0.58 0.4,-0.65 -1.07,-0.59 -0.09,-0.64 0.15,-0.69 0.2,-0.4 0.86,-0.51 1.01,0.12 1.18,0.3 1.42,0.09 v -0.59 l -0.68,-0.25 -0.4,-0.47 -0.2,-0.68 -0.03,-0.92 0.15,-0.93 0.45,-0.27 0.61,-0.06 0.68,-0.34 1.98,-1.84 0.55,0.51 1.16,1.82 0.36,1.21 0.49,3.01 0.33,0.91 0.8,0.5 2.12,0.47 0.95,0.58 1.82,2.79 1.54,0.87 1.14,0.64 6.72,2.06 0.4,0.33 0.72,0.76 0.43,0.6 0.72,1.41 3.23,4.62 2.43,2.45 1.29,0.93 1.29,0.51 1.38,0.05 3.58,-2.03 0.44,-0.42 0.53,-0.27 0.98,-0.07 0.84,0.28 1.73,1.09 0.93,0.17 1.16,-0.32 0.33,-0.49 0.04,-0.6 1.02,-2.43 1.16,-0.25 0.39,-0.23 1.8,-2.83 2.69,-3.35 0.07,-0.48 0.28,-0.08 1.17,0.51 1.51,1.21 0.79,1.14 0.99,0.51 2.05,-0.66 2.83,-1.9 2.52,-2.28 0.75,-1.5 0.52,-1.63 0.75,-1.13 h 1.38 l 0.01,0.01 0.02,0.01 h 0.02 l 1.4,0.24 0.79,-0.44 0.98,-1.93 0.19,-1.92 0.14,-0.63 0.37,-0.46 1.07,-0.65 0.46,-0.42 1.64,-2.33 1.39,-1.25 1.7,0.12 2.5,1.81 1.74,1.59 0.91,0.35 1.73,0.37 2.15,0.97 1.06,0.05 1.2,-0.99 0.29,-0.73 v -0.81 l -0.11,-0.81 0.05,-0.75 0.27,-0.77 0.66,-0.92 0.31,-0.54 0.74,-2.16 0.6,-0.63 1.43,-0.71 3.06,-4.51 1.25,-1.06 0.17,-1.35 -0.7,-0.91 -0.95,-0.77 -0.58,-0.92 1.03,-1.22 -0.46,-1.39 -0.92,-1.48 -0.32,-1.48 0.74,-1.29 3.86,-3.74 1.36,-1.85 0.26,-1.01 -0.79,-0.81 -5.56,-4.31 -1.45,-0.76 -1.09,-0.82 -0.74,-1.06 -0.37,-1.26 0.14,-1.42 -0.62,-1.52 0.08,-1.3 0.87,-0.83 1.73,-0.16 2.65,-0.79 v -0.03 l 0.1,-1.19 1.48,-2.68 -0.86,-2.3 -2.01,-1.75 -2.57,-5.21 -4.03,-0.63 -1.65,1.79 z"
       style="fill:#253680;fill-opacity:1;stroke:none" />
    <path
       id="LA-KH"
       title="Khammouan"
       class="land"
       d="m 487.44,428.33 -0.25,-0.1 -0.21,-0.41 -0.68,-0.34 -1.46,-0.38 -1.69,-0.72 -1.5,-1.07 -0.98,-1.42 -0.06,-1.1 0.6,-2.33 -0.14,-1.08 -0.63,-1.04 -0.42,-0.07 -0.45,0.32 -2.42,0.26 -1.47,6.99 -4.51,6.2 -3.09,5.59 -2.45,6.14 -3.5,3.96 -5.05,0.93 -10.33,-1.56 -2.17,-1.94 -3.06,-2.07 -3.7,-0.55 -0.65,-3.53 -2.88,-3.47 -9.11,-5.17 -7.23,-5.56 -3.49,-1.5 -2.65,-2.72 -1.96,1.18 -0.78,0.24 -0.77,0.33 -0.02,1.16 -3.59,0.97 -3.67,0.47 -2.86,4.89 -1.71,5.86 -1.16,2.72 -0.75,2.81 -5.97,10.13 -1.5,5.01 0.52,0.46 6.01,3.63 1.4,1.82 2.08,4.21 1.35,1.67 0.37,0.61 0.25,0.61 0.58,1.92 0.41,0.76 2.74,3.28 2.7,2.47 14.34,7.56 1.73,0.62 4.39,2.79 1.1,1.17 1.82,2.74 1.42,2.79 0.66,0.79 0.73,0.54 1.57,0.88 0.67,0.61 0.35,0.53 2.19,4.91 0.27,1.14 0.06,1.17 -0.33,4.73 0.18,5.79 -0.36,4.47 -0.42,2.16 -5.97,14.2 -0.46,2.15 0.56,5.7 2.78,2.85 5.15,0.66 1.26,-2.42 -1.36,-5.61 -1.59,-1.6 -1.83,1.28 0.11,-1.73 1.91,-2.2 1.94,-1.35 0.3,-2.74 2.14,-0.89 2.38,0.88 2.25,0.52 1.47,-1.57 1.95,-0.99 2.64,1.07 4.78,-1.18 2.06,1.95 3.1,0.39 2.83,-1.01 2.16,-1.56 2.23,-0.97 2.12,1.47 1.54,2.32 2.2,1.59 2.77,0.14 1.09,-0.43 1.12,-0.28 2.32,0.85 3.46,-1.56 2.55,-2.71 4.67,0.26 5.68,-0.59 10.11,4.61 3.71,0.91 1.35,-2.5 0.56,-4 3.36,-0.64 3.49,0.74 7.36,3.26 7.39,2.38 9.69,0.61 9.3,-1.34 1.13,-0.8 1.03,-0.92 0.34,-1.51 0.49,-1.48 2.59,0.37 2.49,1.42 4.21,4.36 2.56,1.12 2.8,0.42 5.23,1.79 5.76,-0.51 h 0.02 l -1.56,-3.14 0.08,-0.44 0.59,-1.02 0.06,-0.56 -0.95,-1.67 -4.45,-4.18 -2.79,-4.64 -0.51,-1.45 0.08,-1.01 0.75,-1.54 0.07,-0.89 -0.33,-0.56 -1.28,-1.35 -0.48,-0.67 -0.21,-1.18 0.09,-1.02 -0.19,-0.8 -1.11,-0.49 -1.17,0.06 -0.47,0.59 -0.23,0.83 -0.41,0.81 -1.34,1.38 -1.07,0.68 -1.34,-0.13 -2.02,-1.08 -15.35,-13.27 -8.04,-9.8 h -0.01 l -1.94,-2.05 -6.02,-7.86 -2.42,-2.29 -2.99,-1.99 -4.82,-2.13 -1.13,-0.91 -0.85,-1.55 -1.17,-3.7 -0.85,-1.6 -2.05,-2.81 -2.39,-4.56 -3.58,-3.32 -1.02,-3.29 1.1,-7.38 -0.24,-0.49 -1.26,-2.56 v -0.02 l -2.19,-1.21 -0.63,-0.69 -0.35,-0.96 -0.34,-2.21 -0.49,-1.07 -0.78,-0.76 -1.61,-0.89 -0.75,-0.67 -1.52,-3.43 -0.38,-0.29 -1.05,-0.25 -0.43,-0.36 0.08,-0.22 0.21,-0.38 0.19,-0.5 -0.03,-0.6 -0.74,-2.64 -0.56,-0.87 -1.42,-1.14 -1.85,-0.77 -1.97,-0.13 -1.67,0.75 -0.54,0.9 -0.42,2.16 -0.38,0.69 z"
       style="fill:#253680;fill-opacity:1;stroke:none" />
    <path
       id="LA-BL"
       title="Bolikhamxai"
       class="land"
       d="m 400.85,347.5 -1.65,-0.37 -1.15,-0.9 -2.66,-4.03 -1.56,-1.4 -1.48,-0.72 -1.58,-0.51 -1.77,-0.8 -1.44,-1.16 -1.19,-1.27 -1.33,-1.03 -0.03,-0.01 -0.17,1.84 -0.89,3.12 0.5,3.4 -0.03,3.35 -1.89,1.88 -2.07,1.66 -0.56,2.58 -1.26,2.2 -2.32,1.82 -2,2.35 -2.06,2.99 -2.99,1.19 -2.45,0.2 -2.36,-0.03 -1.33,-0.68 -1.17,-0.99 -8.16,-3.9 -3.36,-0.8 -2.87,1.14 -2.76,1.41 -2.02,1.7 -2.52,0.63 -2.48,-0.97 -2.22,-1.59 -2.63,-1.51 -2.34,-1.92 -2.67,-1.34 -2.81,-0.9 -3.76,-3.75 -3.06,0.21 -4.94,1.69 0.01,2.47 0.5,2.85 1.15,2.64 1.06,0.23 0.4,0.75 -1.02,0.64 -1.41,0.07 -0.93,2.32 0.37,3.13 0.78,3.06 0.43,3.24 0.01,4.12 -1.03,3.52 -2.11,2.13 -2.46,2.04 -6.45,3.77 -7.3,1.79 -11.15,0.55 -7.83,1.37 -18.12,-1.13 -6.11,1.39 3.31,7.26 1.96,2.23 2.16,1.94 1.09,4.87 -0.92,4.84 4.67,1.59 3.79,2.55 0.75,2.03 0.62,1.65 0.06,1.88 0.21,0.68 -0.29,0.87 -0.2,0.97 -0.23,0.67 -0.45,0.59 -0.34,0.72 0.12,1.06 0.62,1.09 0.83,0.52 0.98,-0.03 1.02,-0.56 1.1,-1.73 0.86,-1.91 1.06,-0.42 1.71,2.74 0.07,0.11 0.02,-0.01 0.41,-0.21 0.06,-0.03 -0.2,0.42 -0.05,0.06 -0.06,0.1 -0.03,0.04 1.94,-0.68 1.53,-0.98 1.1,-1.45 0.6,-2.07 0.54,-3.25 0.59,-1.51 1.01,-1.24 0.79,-0.5 0.78,-0.28 2.74,-0.44 2.02,-0.75 3.4,-0.59 1.18,-0.42 0.84,-0.72 0.08,-0.72 0.02,-0.17 -0.56,-0.8 -3.86,-2.68 -0.78,-0.32 -0.2,-0.55 -0.25,-0.36 -0.15,-0.39 0.03,-0.63 0.93,-2.36 1.54,-1.96 2.01,-1.5 2.25,-0.99 7.37,-1.53 h 0.94 l 5.06,1.57 1.7,0.32 0.45,-0.01 1.32,-0.22 0.8,0.06 2.35,0.59 2.36,0.22 5.39,1.47 1.32,0.93 0.79,0.74 0.8,0.51 5.26,2.41 1.25,0.34 5.37,0.3 1.61,0.27 1.55,0.55 1.47,0.76 1.37,0.95 0.93,1.12 0.63,1.24 0.81,0.96 1.49,0.32 0.68,-0.11 0.43,-0.26 0.33,-0.4 0.39,-0.59 1.51,-1.76 1.78,-1.2 2.03,-0.52 2.23,0.22 2.27,1.19 1.72,1.88 4.6,8.15 3.93,9.81 1.06,1.87 1.23,1.52 5.77,5.25 0.48,0.68 0.69,0.97 4.09,9.1 0.85,2.94 0.56,1.03 0.73,0.91 0.34,0.31 1.5,-5.01 5.97,-10.13 0.75,-2.81 1.16,-2.72 1.71,-5.86 2.86,-4.89 3.67,-0.47 3.59,-0.97 0.02,-1.16 0.77,-0.33 0.78,-0.24 1.96,-1.18 2.65,2.72 3.49,1.5 7.23,5.56 9.11,5.17 2.88,3.47 0.65,3.53 3.7,0.55 3.06,2.07 2.17,1.94 10.33,1.56 5.05,-0.93 3.5,-3.96 2.45,-6.14 3.09,-5.59 4.51,-6.2 1.47,-6.99 -0.96,0.11 -0.98,-0.3 -0.61,-0.57 -0.82,-1.51 -0.53,-0.69 -4.48,-2.81 -0.88,-1.27 -0.06,-2.03 0.57,-1.29 0.06,-1.18 -1.61,-1.67 -2.91,-2.14 -2.14,-2.08 -1,-2.71 0.49,-4.03 1.41,-5.4 1.21,-2.89 1.34,-1.77 1.13,-0.15 1.08,0.36 0.93,-0.13 0.68,-1.63 v -0.34 -1.19 l -0.61,-0.82 -2.01,-1.38 -2.63,-4.41 -1.14,-0.36 -1.08,0.14 -1.07,0.3 -1.15,0.09 -2.24,-0.82 -4.64,-2.73 -1.5,-0.3 -1.57,0.43 -1.81,0.05 -1.62,-0.43 -0.97,-0.99 -0.91,-2.43 -2.45,-0.72 -5.31,0.42 -1.27,-0.14 -3.58,-1.11 -3.79,-0.54 -1.07,-0.4 -0.72,-0.62 -1.08,-1.64 -0.49,-0.54 -0.91,-0.33 -1.79,-0.15 -0.93,-0.28 -1.39,-0.95 -2.52,-2.58 -1.32,-1.01 -3.1,-1.7 -1.09,-1.01 -3.18,-4.84 -1.13,-1.13 -1.54,-0.95 -1.74,-0.46 z"
       style="fill:#253680;fill-opacity:1;stroke:none" />
    <path
       id="LA-PH"
       title="Phôngsali"
       class="land"
       d="m 152.38,0 -2.65,0.45 -2.22,1.27 -1.89,1.65 -1.3,1.62 -0.88,2.19 -0.08,2.02 0.14,1.95 -0.18,1.98 -0.24,0.14 -1.61,1.66 -0.11,0.43 -0.25,1.59 -1.27,4.15 -0.45,0.79 -1.22,0.56 -1.13,-0.17 -1.12,-0.37 -1.17,0.01 -0.96,0.52 -0.82,0.81 -1.48,1.8 0.23,1.71 2.85,3.46 1.15,1.74 0.51,2.67 -0.48,1.92 -0.63,1.76 0.04,2.2 0.88,2.08 2.52,4.13 0.75,2.05 0.6,3.98 0.87,1.39 2.02,1.27 3.28,0.94 0.64,0.87 0.18,0.78 0.05,0.77 0.26,0.85 2.11,2.89 1.16,2.51 0.46,0.7 2.3,2.11 0.04,0.97 -1.84,5.56 -0.34,1.77 0.06,1.51 0.39,0.6 1.51,1.33 0.52,0.83 0.08,0.97 -0.31,2.07 0.34,1.05 1.37,0.97 1.73,0.48 1.32,0.81 0.22,1.98 -1.17,1.76 -1.93,0.57 -2.01,0.28 -1.36,0.87 -0.13,1.64 1.24,3.96 -0.36,1.88 -1.35,2.12 -0.38,9.81 -0.92,3.69 -0.05,1.7 0.69,1.67 1.29,1.19 4.81,1.79 1.16,0.71 1.03,0.88 0.74,1.08 0.32,1.27 -0.09,1.02 -0.12,0.31 1.69,0.9 4.23,3.26 1.62,0.51 1.44,0.9 1.01,1.11 7.19,1.97 2.86,1.52 4.32,5.78 2.62,2.54 3.16,1.89 3.15,0.27 3.13,-0.88 3.18,1.19 3.19,2.01 2.3,2.63 3.4,1.67 2.95,1.88 2.77,0.13 2.68,0.49 1.14,1.16 0.4,1.93 5.09,1.99 5.31,-6.45 2.01,-1.32 2.31,-0.56 3.12,0.49 1.48,-3.01 1.32,-0.79 6.19,-2.56 0.08,-0.56 0.39,-0.79 0.82,-0.26 2.66,-0.27 0.84,-1.58 0.03,-2.62 0.69,-4.7 0.93,-1.8 1.38,-0.01 1.51,0.47 7.43,-0.56 h 0.02 l -0.02,-0.1 -1.04,-1.66 -0.94,-0.58 -0.77,-0.03 -0.63,-0.19 -0.56,-0.99 v -0.96 l 0.81,-1.97 0.11,-0.9 -0.47,-1.17 -0.9,-1.06 -1.2,-0.85 -1.38,-0.55 -2.04,-0.07 -1.75,0.18 -0.73,-0.42 1.06,-1.89 1.51,-1.19 3.13,-0.78 1.13,-1.15 0.33,-1.67 0.08,-4.53 0.38,-2.03 3.05,-4.99 0.12,-1.14 -1.28,-0.26 -1.8,0.86 -1.85,1.18 -1.39,0.67 4.19,-6.94 1.99,-1.81 3.47,-4.35 1.85,-1.79 0.07,-0.28 0.04,-0.28 -0.04,-0.29 -0.07,-0.28 -0.93,-2.17 -0.3,-2.41 0.08,-6.83 -0.17,-1.15 -0.36,-1.08 -0.75,-1.31 -0.48,-0.19 -0.52,0.39 -6.7,2.93 -1.6,0.12 -1.11,-1.2 -0.3,-1.92 0.28,-3.96 -0.79,-4.55 -1.82,-1.47 -1.62,1.57 -0.23,8 -1.11,3.19 -2.08,2.68 -2.87,1.91 -1,0.24 -4.88,0.08 -0.37,0.22 -0.26,-0.15 -0.68,-1.02 -0.6,-1.55 -0.45,-2.25 -0.2,-2.27 0.45,-5.84 -0.88,-4.07 -3.15,-7.24 -2.84,-2.39 -4.1,-1.37 -3.5,-1.84 -1.07,-3.76 0.08,-0.39 0.16,-0.36 0.2,-0.31 0.27,-0.29 0.81,-1.24 -1.41,-1.26 -2.31,-1.34 -1.89,-1.47 -0.64,-1.13 -0.91,-2.47 -0.61,-1.06 -0.86,-0.82 -2.9,-1.75 -6.62,-6.52 -5.56,-2.83 -1.78,-1.7 -0.59,-2 -1.33,-1.29 -1.6,-1.13 -1.34,-1.5 -0.15,-0.61 0.31,-1.18 v -0.54 l -0.3,-0.44 -0.8,-0.61 -0.26,-0.36 -0.93,-3.15 -0.55,-0.99 -0.62,-1.39 h -1.05 l -0.62,-0.82 -0.06,-0.91 -0.43,-0.83 -0.9,-0.6 -0.89,-0.33 -5.67,-1.36 -1.81,-0.14 -1.92,0.23 -1.97,0.83 -4.02,0.09 -1.64,0.62 -0.93,1.75 -0.39,2.03 -0.87,1.31 -2.34,-0.45 L 159.4,8.97 156.36,2.38 153.6,0.05 153.19,0 Z"
       style="fill:#253680;fill-opacity:1;stroke:none" />
    <path
       id="LA-OU"
       title="Oudômxai"
       class="land"
       d="m 193.03,147.58 -3.15,-0.27 -3.16,-1.89 -2.62,-2.54 -4.32,-5.78 -2.86,-1.52 -7.19,-1.97 -1.01,-1.11 -1.44,-0.9 -1.62,-0.51 -4.23,-3.26 -1.69,-0.9 -0.2,0.5 -0.55,0.64 -0.75,0.5 -0.85,0.15 -2.08,-0.44 -1.24,1.13 0.32,1.13 0.61,1.4 -0.16,0.99 1.08,1.87 -1.09,7.55 -1.45,3.54 -2.01,3.06 -3.59,1.36 -3.56,1.84 -3.1,2.73 -0.28,3.78 1.11,1.48 -0.5,1.52 -4,-0.03 -1.44,0.7 -3.58,0.87 -4.19,3.82 -3.34,6.58 -3.31,1.74 8.93,3.07 0.98,2.47 3.37,2.69 0.77,1.51 0.71,7.75 -2.59,7.79 -1.4,2.05 -1.79,1.7 -1.62,2.28 -3.05,5.8 -7.24,3.35 -9.27,0.6 -4.53,-0.31 0.1,1.03 0.56,2.26 0.91,2.17 0.2,1.56 -0.25,10.97 -1.36,2.46 -2.09,2.14 -2.91,1.52 -3.14,-0.4 -5.42,-3.97 -3.62,0.66 -2.91,1.93 -0.91,3.47 -1.87,2.47 -2.22,2.23 -1.95,1.15 -2.07,0.91 -8.44,0.3 -7.49,2.74 0.13,4.04 1.85,4.44 1.51,-1.39 1.17,-0.6 1.27,-0.1 11.28,1.84 4.3,1.35 3.22,2.51 0.34,-0.7 0.6,-0.89 0.26,-0.54 h 0.69 l 1.24,1.45 1.51,-0.49 2.29,-2.25 2.3,-1.66 0.86,-0.35 1.18,0.06 0.98,0.48 0.78,0.54 1.77,0.91 6.01,4.05 2.15,0.63 27.86,-0.21 3.46,-0.77 2.03,-2.39 -1.11,-0.73 1.17,-1.11 2,-1.02 1.41,-0.44 0.93,-0.57 2.71,-2.68 1.09,-0.83 3.74,-1.02 7.51,-0.68 3.31,-0.93 3.09,-2.14 4.76,-5.4 2.25,-1.92 1.64,-0.57 5.07,0.57 1.52,-0.43 5.14,-2.99 3.04,-0.31 1.5,-3.01 2.46,-2.27 0.66,-3.37 -1.3,-3.19 -2.79,-3.66 0.19,-4.21 1.27,-2.69 -0.27,-2.75 -1.59,-1.47 -1.25,-1.73 0.29,-2.94 4.05,-8.88 1.8,-5.32 2.37,-5.22 0.33,-2.33 6.29,-0.93 3.22,-3.5 1.39,-4.62 0.14,-1.92 -0.65,-1.7 -0.8,-1.29 0.12,-1.31 -0.45,-2.37 1.48,-3.93 -0.06,-2.1 -0.8,-2.53 -2.97,-3.95 -0.09,-2.73 -2.3,-2.63 -3.19,-2.01 -3.18,-1.19 z"
       style="fill:#253680;fill-opacity:1;stroke:none" />
    <path
       id="LA-LP"
       title="Louangphrabang"
       class="land"
       d="m 264.88,142.31 -0.73,-0.32 -0.44,-0.68 -0.43,-0.89 -0.63,-1.73 -0.87,-3.79 h -0.02 l -7.43,0.56 -1.51,-0.47 -1.38,0.01 -0.93,1.8 -0.69,4.7 -0.03,2.62 -0.84,1.58 -2.66,0.27 -0.82,0.26 -0.39,0.79 -0.08,0.56 -6.19,2.56 -1.32,0.79 -1.48,3.01 -3.12,-0.49 -2.31,0.56 -2.01,1.32 -5.31,6.45 -5.09,-1.99 -0.4,-1.93 -1.14,-1.16 -2.68,-0.49 -2.77,-0.13 -2.95,-1.88 -3.4,-1.67 0.09,2.73 2.97,3.95 0.8,2.53 0.06,2.1 -1.48,3.93 0.45,2.37 -0.12,1.31 0.8,1.29 0.65,1.7 -0.14,1.92 -1.39,4.62 -3.22,3.5 -6.29,0.93 -0.33,2.33 -2.37,5.22 -1.8,5.32 -4.05,8.88 -0.29,2.94 1.25,1.73 1.59,1.47 0.27,2.75 -1.27,2.69 -0.19,4.21 2.79,3.66 1.3,3.19 -0.66,3.37 -2.46,2.27 -1.5,3.01 -3.04,0.31 -5.14,2.99 -1.52,0.43 -5.07,-0.57 -1.64,0.57 -2.25,1.92 -4.76,5.4 -3.09,2.14 -3.31,0.93 -7.51,0.68 -3.74,1.02 2.06,2.6 1.36,1.73 1.49,1.42 1.01,1.86 0.13,4.69 -1.64,4.5 -0.87,1.81 0.08,5.93 1.03,2.5 2.64,0.12 2.62,-0.25 0.87,0.69 -0.86,3.41 0.16,13.08 0.39,1.41 0.76,1.28 1.13,1.3 1.44,0.94 3.64,1.65 0.91,1.09 -0.63,0.97 -3.07,3.24 -0.72,1.5 -0.46,1.91 -2.13,3.25 -0.56,1.29 -0.03,1.85 0.61,5.8 -0.17,1.97 -0.78,3.28 -0.92,9.51 2.63,-2.11 1.95,-1.43 0.83,-1.04 0.86,-0.78 2.74,-0.52 4.52,-4.25 2.75,-5.8 0.94,-4.05 1,-1.35 1.82,-0.59 1.27,-0.98 0.98,-1.36 1.49,-1.17 1.34,-1.28 1.36,-6.01 2.8,-1.7 3.34,-0.58 2.45,-0.16 2.34,0.59 1.26,1.45 1.46,1.23 3.13,-0.66 2.85,1.97 3.03,-1.66 2.66,-0.96 1.34,1.07 1.57,1 2.63,0.22 2.65,-0.22 -0.51,1.69 -0.71,1.56 1.93,0.84 1.88,0.49 1.14,1.98 0.8,2.22 2.97,2.87 3.23,2.43 6.76,-3.3 5.07,-1.54 3.89,-3.98 -1.92,-5.6 -2.21,-2.69 -2.56,-2.24 -1.19,-5.05 0.97,-5.18 4.2,-3.24 1.53,-2.1 1.78,-1.8 5.51,-3.78 4.24,-3.9 1.21,-1.79 -0.39,-2.31 3.76,0.2 3.4,-0.74 0.62,-4.6 0.14,-4.64 2.47,-1.67 2.82,-1.34 2.01,-1.45 2.22,-0.93 4.63,-0.33 1.82,-1.56 1.19,-2.18 -0.44,-4.2 0.3,-7 0.38,-2.17 -0.06,-1.51 0.61,-1.3 1.16,-0.82 0.86,-1.15 -0.59,-1.27 -3.26,-3.98 -1.19,-2.3 3.07,-4.58 6.25,-6.21 1.9,-2.61 0.18,-3.83 -0.47,-3.57 0.62,-1.2 0.57,-1.42 -1.72,-0.05 -1.62,-0.54 -1.79,-2.7 -1.15,-2.73 2.16,-2.53 1.31,-5.71 -0.47,-5.93 0.39,-4.7 1.16,-4.01 2.18,-1.54 2.34,-1.22 5.32,-1.7 4.79,-2.58 0.3,-0.49 0.19,-0.54 -0.1,-0.55 -2.34,0.66 -0.51,-0.02 -0.98,-0.13 -2.57,-0.87 -5.22,-2.82 -1.5,-0.42 -0.83,0.08 -1.14,0.34 -0.67,0.2 -1.08,-0.02 -0.9,-0.32 -1.24,-0.91 -0.78,-0.41 -0.94,-0.25 -1.67,-0.23 -0.98,-0.44 -0.59,-0.44 -1.36,-1.33 -2.64,-3.32 -1.71,-2.9 -2.87,-6.35 -2.09,-4.46 -1.42,-1.67 -2.31,-1.02 z"
       style="fill:#253680;fill-opacity:1;stroke:none" />
    <path
       id="LA-HO"
       title="Houaphan"
       class="land"
       d="m 381.45,159.51 -0.33,-0.5 -0.96,-2.04 -0.54,-0.77 -0.69,-0.44 -2.63,-0.98 -0.98,-0.15 -2.1,-0.04 -0.87,-0.14 -0.77,-0.39 -1.4,-1.05 -0.63,-0.35 -3.29,0.24 -4.26,5.02 -3.38,0.56 -1.08,-0.03 -0.94,0.24 -1.85,0.84 -6.79,2.19 -0.75,0.48 -1.36,1.23 -0.83,0.46 -0.94,0.08 -1.87,-0.26 -1.02,0.35 -0.91,1.09 -0.96,1.85 -0.77,2 -0.35,1.59 0.2,2.02 0.32,0.96 -0.37,0.67 -1.87,1.19 -1.14,0.4 -0.8,0.11 -0.57,0.38 -0.45,1.3 0.12,0.94 0.93,1.91 0.05,0.81 -0.53,0.49 -1.01,0.51 -1.12,0.38 -0.84,0.12 -1.02,-0.18 -0.39,-0.24 -0.29,-0.4 -2.03,-1.78 -3.57,-3.91 -1.79,-1.04 -5.71,-1.23 v -0.01 l -0.01,-0.01 v 0.01 l -0.93,-0.05 -0.8,-0.23 -0.74,-0.41 -0.71,-0.54 -1,-1.28 -1.69,-3.3 -1.12,-1.13 -1.28,-0.49 -0.49,0.25 -0.28,0.62 -0.65,0.62 -1.88,1.07 -0.16,0.05 0.1,0.55 -0.19,0.54 -0.3,0.49 -4.79,2.58 -5.32,1.7 -2.34,1.22 -2.18,1.54 -1.16,4.01 -0.39,4.7 0.47,5.93 -1.31,5.71 -2.16,2.53 1.15,2.73 1.79,2.7 1.62,0.54 1.72,0.05 -0.57,1.42 -0.62,1.2 0.47,3.57 -0.18,3.83 -1.9,2.61 -6.25,6.21 -3.07,4.58 1.19,2.3 3.26,3.98 0.59,1.27 -0.86,1.15 -1.16,0.82 -0.61,1.3 0.06,1.51 -0.38,2.17 -0.3,7 0.44,4.2 4.09,-1.26 4.24,-0.28 1.92,2.04 2.46,1.42 4.55,-1.93 2.01,1.16 1.96,1.55 4.67,0.42 4.8,1.46 2.37,-0.65 2,-1.64 2.55,-0.86 2.58,-0.31 3.16,-0.84 2.1,-2.63 2.7,1.3 2.51,-0.38 0.12,-2.87 0.68,-3.28 4.26,-3.22 2.41,-0.36 2.55,0.03 4.95,3 3.59,4.72 -0.1,2.35 0.55,2.31 -0.7,2.87 -0.95,2.65 2.39,1.2 0.76,0.81 1.83,3.15 0.93,0.59 1.26,0.5 7.91,-2.2 1.27,-1.09 0.42,-1.88 1.06,-1.63 1.4,-1.23 2.96,2.02 3.5,0.28 1.97,-0.79 1.64,-1.43 0.34,-2.14 0.89,-1.67 0.39,4.68 -2.11,6.66 0.21,2.37 0.87,2.91 0.18,3.35 0.01,0.01 0.01,0.02 2.66,-0.73 1.21,1.06 3.23,1.11 1.68,2.85 4.31,-2.76 1.67,-0.44 1.86,0.22 1.08,0.82 0.87,1.22 1.31,1.34 0.78,0.49 2.34,1.04 5.24,3.18 1.56,0.33 2.16,-0.25 0.8,-0.34 1.43,-0.97 0.83,-0.27 0.79,0.21 1.59,0.93 0.85,-0.1 0.82,-1.04 2.93,-7.84 0.76,-1.3 1.2,-1.32 1.45,-1.06 1.15,-0.32 1.26,-0.14 1.75,-0.54 2.22,-2.05 2.26,-1.02 1.83,-1.37 0.93,-3.1 0.17,-1.63 -0.03,-0.89 -0.68,-0.55 -1.75,-0.59 -2.73,-0.17 -0.48,-0.55 0.58,-1.81 1.74,-2.22 5.05,-3.03 2.09,-1.6 0.85,-1.37 0.17,-0.85 0.45,-0.48 1.76,-0.28 2.73,0.32 1.22,-0.19 0.93,-0.81 0.35,-0.3 0.34,-1.36 -0.16,-1.2 -0.29,-1.2 -0.17,-1.82 -0.26,-0.86 0.03,-0.61 0.32,-0.23 1.27,-0.26 0.3,-0.39 -0.7,-1.55 -3.56,-2.35 -1.24,-1.86 -0.14,-2.21 0.51,-1.06 -0.09,-0.74 -8.2,-4.49 -3.73,0.19 -4.18,1.41 -3.95,0.81 -3.12,-1.59 -0.37,-1.29 -0.1,-2 0.14,-2.01 0.36,-1.29 0.78,-0.61 0.76,0.05 0.72,-0.22 0.63,-1.33 0.06,-0.89 -0.15,-1.15 -0.28,-1.12 -0.35,-0.78 -1.34,-1.06 -3.51,-1.39 -1.49,-1.07 -2.12,-2.97 -1.28,-0.71 -13.22,0.29 -3.77,-0.94 -2.94,-1.88 0.62,-1.85 5.29,-3.65 h 0.01 l 1.95,-3.86 2.29,1.82 2.41,0.42 2.3,-0.73 2.03,-1.62 5.97,-8.23 0.63,-2.32 0.1,-0.38 -1.34,-1.39 -5.25,-1.8 -4.76,-2.31 -1.54,-1.59 -0.88,-3.1 -1.25,-1.38 -1.89,-0.21 -2.11,0.05 -1.87,-0.57 -0.69,-0.73 -0.76,-1.72 -0.5,-0.73 -0.71,-0.49 -1.44,-0.55 -0.77,-0.53 -1.22,-1.47 -1.48,-3.04 -1.1,-1.5 -0.68,-0.59 -0.83,-0.57 -0.91,-0.46 -0.83,-0.27 -0.88,0.07 -2.08,0.58 z"
       style="fill:#253680;fill-opacity:1;stroke:none" />
    <path
       id="LA-XI"
       title="Xiangkhoang"
       class="land"
       d="m 356.6,268.83 -1.26,-0.5 -0.93,-0.59 -1.83,-3.15 -0.76,-0.81 -2.39,-1.2 0.95,-2.65 0.7,-2.87 -0.55,-2.31 0.1,-2.35 -3.59,-4.72 -4.95,-3 -2.55,-0.03 -2.41,0.36 -4.26,3.22 -0.68,3.28 -0.12,2.87 -2.51,0.38 -2.7,-1.3 -2.1,2.63 -3.16,0.84 -2.58,0.31 -2.55,0.86 -2,1.64 -2.37,0.65 -4.8,-1.46 -4.67,-0.42 -1.96,-1.55 -2.01,-1.16 -4.55,1.93 -2.46,-1.42 -1.92,-2.04 -4.24,0.28 -4.09,1.26 -1.19,2.18 -1.82,1.56 -4.63,0.33 -2.22,0.93 -2.01,1.45 -2.82,1.34 -2.47,1.67 -0.14,4.64 -0.62,4.6 -3.4,0.74 -3.76,-0.2 0.39,2.31 -1.21,1.79 -4.24,3.9 -5.51,3.78 -1.78,1.8 -1.53,2.1 -4.2,3.24 -0.97,5.18 1.19,5.05 2.56,2.24 2.21,2.69 1.92,5.6 1.2,2.33 3.2,1.4 1.45,0.91 0.01,0.02 1.15,0.27 2.86,3.07 2.62,1.32 2.22,1.68 1.45,0.39 1.43,-0.33 1.8,-0.21 7.89,1.86 1.93,0.8 2.79,2.74 3.22,0.57 3.41,0.19 9.16,1.81 1.18,-0.33 0.93,-0.48 3.22,-0.16 2.54,-1.14 2.05,0.4 2.01,0.13 1.88,1.53 2.28,0.01 0.67,-2.15 1.46,-0.67 1.56,-0.25 2.87,0.44 2.4,1.81 2.1,2.41 2.27,1.98 2.86,0.23 4.06,1.5 5.94,-0.31 3.68,2.02 2.88,1.17 3.43,-0.2 2.98,0.94 2.28,2.18 0.74,6.33 -0.77,6.54 3.36,0.8 8.16,3.9 1.17,0.99 1.33,0.68 2.36,0.03 2.45,-0.2 2.99,-1.19 2.06,-2.99 2,-2.35 2.32,-1.82 1.26,-2.2 0.56,-2.58 2.07,-1.66 1.89,-1.88 0.03,-3.35 -0.5,-3.4 0.89,-3.12 0.17,-1.84 -1.86,-0.46 -2.67,0.79 -0.81,-0.82 -0.01,-1.75 -0.33,-1.95 -0.95,-0.94 -3.71,-2.57 -10.26,-4.64 -1.9,-0.45 -1.93,0.1 -1.96,0.84 h -0.12 l -2.73,-1.99 -2.33,-1.23 -0.65,-0.47 -0.46,-0.69 -1.23,-2.33 -1.47,-0.19 -1.68,0.04 -0.93,-0.44 0.76,-1.7 1.23,-0.94 3.32,-1.46 1.42,-1.08 1.82,-2.8 1.09,-0.94 1.96,-0.46 2.09,-1.1 2.2,-0.79 1.36,-0.17 0.29,0.37 0.05,-0.05 0.71,-1.38 0.31,-0.98 0.38,-2.26 0.6,-1.05 0.93,-0.56 0.99,-0.22 0.8,-0.43 0.39,-1.16 v -0.01 h -0.02 v -0.01 l -1.06,-1.34 -0.3,-1.6 -0.12,-1.69 -0.59,-1.59 -1.05,-0.89 -2.89,-1.75 -1.07,-1.41 -1.82,-5.11 -0.22,-1.21 0.53,-1.56 0.86,-0.37 1.06,0.3 4.43,2.3 1.76,0.6 1.89,-0.29 0.74,-0.6 0.67,-1.46 0.63,-0.65 0.46,-0.49 2.02,-0.03 3.89,-1.06 -0.01,-0.02 -0.01,-0.01 -0.18,-3.35 -0.87,-2.91 -0.21,-2.37 2.11,-6.66 -0.39,-4.68 -0.89,1.67 -0.34,2.14 -1.64,1.43 -1.97,0.79 -3.5,-0.28 -2.96,-2.02 -1.4,1.23 -1.06,1.63 -0.42,1.88 -1.27,1.09 z"
       style="fill:#253680;fill-opacity:1;stroke:none" />
    <path
       id="LA-VI"
       title="Vientiane"
       class="land"
       d="m 198.84,308.71 -1.46,-1.23 -1.26,-1.45 -2.34,-0.59 -2.45,0.16 -3.34,0.58 -2.8,1.7 -1.36,6.01 -1.34,1.28 -1.49,1.17 -0.98,1.36 -1.27,0.98 -1.82,0.59 -1,1.35 -0.94,4.05 -2.75,5.8 -4.52,4.25 -2.74,0.52 -0.86,0.78 -0.83,1.04 -1.95,1.43 -2.63,2.11 -0.16,1.7 -0.34,1.11 -0.17,1.04 0.36,0.84 0.49,0.75 0.25,0.91 0.17,2.01 -0.08,2.26 -0.95,3.62 -0.23,1.82 0.53,1.49 3.89,4.26 0.99,3.25 -0.69,2.93 -2.77,5.82 -0.44,2.05 -0.4,4.09 -0.42,1.85 -2.89,5.16 -1.43,1.88 -1.97,4.61 -0.97,1.05 -0.2,0.29 -2.06,1.71 -1.07,0.41 -1.18,0.23 -1.16,-0.09 -1.01,-0.55 -1.4,1.3 -1.68,3.55 -1.04,1.52 -2.05,1.42 -1.4,0.57 -0.33,0.91 -0.07,1.1 -0.22,0.93 -0.89,1.32 -1.34,1.56 -1.57,1.29 -1.63,0.54 -2.02,0.34 -0.86,0.9 -0.46,1.27 -0.81,1.48 -4.31,4.94 -1.62,3.16 -0.38,3.97 0.48,1.32 1.72,3.06 0.38,1.2 0.57,6.97 -0.21,2.88 -0.58,2.72 -0.1,2.5 1.97,3.3 0.42,0.98 0.63,0.72 1.37,0.28 2.25,-0.45 0.8,0.32 0.45,1.46 h 0.63 l 0.68,-0.57 1.31,-0.67 1.27,-0.15 0.59,1.02 -0.25,0.73 -1.65,2.95 v 0.6 l 0.61,0.48 0.16,0.16 0.02,0.02 1.71,-0.64 0.6,-0.84 0.42,-1.06 0.23,-1.27 v -1.47 l 2.11,1.33 1,-1.08 0.8,-1.86 1.51,-0.99 8.58,-1.68 0.33,-1.93 2.25,-6.39 0.81,-4.13 0.76,-1.77 1.52,-1.46 h 0.58 l 0.87,1.09 3.61,0.99 3.57,2.07 1.89,-0.61 13.98,-15.09 -0.03,-0.02 -0.42,-0.47 -0.4,-0.93 -0.51,-0.88 -0.19,-4.95 1.8,-7.81 0.06,-2.6 -1.45,-2.19 0.68,-2.05 2.29,0.61 2.5,1.35 2.08,-1.06 1.81,-1.95 2.85,-0.62 2.88,0.11 1.9,1.87 1.56,2.22 1.01,3.25 3.08,2.15 3.96,1.12 3.78,1.5 2.66,0.5 2.7,-0.4 1.16,0.5 1.26,0.75 3.04,-0.26 1.54,1.58 0.46,0.45 1.04,0.2 1.03,0.43 0.44,1.14 -0.03,1.66 0.13,0.42 0.29,-0.11 2.49,0.45 1.34,-0.39 1.32,1.14 1.98,0.08 4.21,-3.71 3.68,-0.46 3.45,-1.12 2.52,-1.33 7.57,-1.49 4.86,1.48 0.92,-4.84 -1.09,-4.87 -2.16,-1.94 -1.96,-2.23 -3.31,-7.26 6.11,-1.39 18.12,1.13 7.83,-1.37 11.15,-0.55 7.3,-1.79 6.45,-3.77 2.46,-2.04 2.11,-2.13 1.03,-3.52 -0.01,-4.12 -0.43,-3.24 -0.78,-3.06 -0.37,-3.13 0.93,-2.32 1.41,-0.07 1.02,-0.64 -0.4,-0.75 -1.06,-0.23 -1.15,-2.64 -0.5,-2.85 -0.01,-2.47 4.94,-1.69 3.06,-0.21 3.76,3.75 2.81,0.9 2.67,1.34 2.34,1.92 2.63,1.51 2.22,1.59 2.48,0.97 2.52,-0.63 2.02,-1.7 2.76,-1.41 2.87,-1.14 0.77,-6.54 -0.74,-6.33 -2.28,-2.18 -2.98,-0.94 -3.43,0.2 -2.88,-1.17 -3.68,-2.02 -5.94,0.31 -4.06,-1.5 -2.86,-0.23 -2.27,-1.98 -2.1,-2.41 -2.4,-1.81 -2.87,-0.44 -1.56,0.25 -1.46,0.67 -0.67,2.15 -2.28,-0.01 -1.88,-1.53 -2.01,-0.13 -2.05,-0.4 -2.54,1.14 -3.22,0.16 -0.93,0.48 -1.18,0.33 -9.16,-1.81 -3.41,-0.19 -3.22,-0.57 -2.79,-2.74 -1.93,-0.8 -7.89,-1.86 -1.8,0.21 -1.43,0.33 -1.45,-0.39 -2.22,-1.68 -2.62,-1.32 -2.86,-3.07 -1.15,-0.27 -0.01,-0.02 -1.45,-0.91 -3.2,-1.4 -1.2,-2.33 -3.89,3.98 -5.07,1.54 -6.76,3.3 -3.23,-2.43 -2.97,-2.87 -0.8,-2.22 -1.14,-1.98 -1.88,-0.49 -1.93,-0.84 0.71,-1.56 0.51,-1.69 -2.65,0.22 -2.63,-0.22 -1.57,-1 -1.34,-1.07 -2.66,0.96 -3.03,1.66 -2.85,-1.97 z"
       style="fill:#253680;fill-opacity:1;stroke:none" />
    <path
       id="LA-VT"
       title="Vientiane [prefecture]"
       class="land"
       d="m 213.27,413.36 -2.66,-0.5 -3.78,-1.5 -3.96,-1.12 -3.08,-2.15 -1.01,-3.25 -1.56,-2.22 -1.9,-1.87 -2.88,-0.11 -2.85,0.62 -1.81,1.95 -2.08,1.06 -2.5,-1.35 -2.29,-0.61 -0.68,2.05 1.45,2.19 -0.06,2.6 -1.8,7.81 0.19,4.95 0.51,0.88 0.4,0.93 0.42,0.47 0.03,0.02 1.45,-1.57 0.67,-0.51 2.67,0.13 4.26,0.22 1.7,0.96 0.6,1.39 0.34,1.63 0.87,1.67 2.8,1.99 0.35,0.33 0.69,0.39 2.17,2.93 4.63,4.14 2.76,1.4 2.76,-0.17 1.73,2.21 2.5,2.12 3.08,1.6 3.37,0.64 7.9,0.03 2.96,1.52 1.18,3.88 -1.55,6.33 -0.03,0.89 1.31,0.38 4.75,2.34 2.04,0.27 v -0.71 l -0.88,-1.4 -0.53,-1.77 0.49,-1.49 1.27,-0.79 3.28,-0.8 1.4,-0.84 3.39,-3.14 5.35,-2.95 0.56,-1.03 1.36,-0.81 7.94,-3.58 1.5,-0.31 1.67,0.43 2.85,1.86 1.54,0.42 1.61,-0.63 1.06,-1.39 0.82,-1.38 0.92,-0.64 0.45,-0.94 -0.77,-5.69 0.15,-1.77 0.46,-1.29 0.79,-0.9 0.7,-0.37 -0.07,-0.11 -1.71,-2.74 -1.06,0.42 -0.86,1.91 -1.1,1.73 -1.02,0.56 -0.98,0.03 -0.83,-0.52 -0.62,-1.09 -0.12,-1.06 0.34,-0.72 0.45,-0.59 0.23,-0.67 0.2,-0.97 0.29,-0.87 -0.21,-0.68 -0.06,-1.88 -0.62,-1.65 -0.75,-2.03 -3.79,-2.55 -4.67,-1.59 -4.86,-1.48 -7.57,1.49 -2.52,1.33 -3.45,1.12 -3.68,0.46 -4.21,3.71 -1.98,-0.08 -1.32,-1.14 -1.34,0.39 -2.49,-0.45 -0.29,0.11 -0.13,-0.42 0.03,-1.66 -0.44,-1.14 -1.03,-0.43 -1.04,-0.2 -0.46,-0.45 -1.54,-1.58 -3.04,0.26 -1.26,-0.75 -1.16,-0.5 z"
       style="fill:#253680;fill-opacity:1;stroke:none" />
    <path
       id="LA-SV"
       title="Savannakhét"
       class="land"
       d="m 545.18,535.45 -9.69,-0.61 -7.39,-2.38 -7.36,-3.26 -3.49,-0.74 -3.36,0.64 -0.56,4 -1.35,2.5 -3.71,-0.91 -10.11,-4.61 -5.68,0.59 -4.67,-0.26 -2.55,2.71 -3.46,1.56 -2.32,-0.85 -1.12,0.28 -1.09,0.43 -2.77,-0.14 -2.2,-1.59 -1.54,-2.32 -2.12,-1.47 -2.23,0.97 -2.16,1.56 -2.83,1.01 -3.1,-0.39 -2.06,-1.95 -4.78,1.18 -2.64,-1.07 -1.95,0.99 -1.47,1.57 -2.25,-0.52 -2.38,-0.88 -2.14,0.89 -0.3,2.74 -1.94,1.35 -1.91,2.2 -0.11,1.73 1.83,-1.28 1.59,1.6 1.36,5.61 -1.26,2.42 -5.15,-0.66 -2.78,-2.85 0.3,3.16 0.31,1.06 0.92,2.01 0.32,1.05 0.06,1.16 -0.17,1.11 -0.62,2.19 -0.05,0.3 -0.15,0.87 0.04,1.1 1.99,7.97 0.07,1.06 -0.14,1.04 -1.28,3.6 -0.99,4.04 -0.42,4.14 0.1,2.18 0.46,1.96 0.99,1.7 1.62,1.37 5.18,2.83 1.54,1.31 1.24,1.51 0.98,1.6 0.76,1.73 0.86,3 0.42,0.99 0.6,0.87 0.85,0.75 2.48,1.42 0.74,0.62 1.79,1.94 0.72,0.54 0.81,0.45 1.79,1 0.74,0.66 1.01,1.84 0.31,2.08 -0.08,4.29 0.34,2.52 0.92,2.29 1.44,1.95 1.96,1.51 2.56,0.92 12.03,4.33 0.94,0.16 3.8,0.17 10.75,2.75 0.89,0.35 0.7,0.51 0.11,0.46 h 0.04 l 7.07,0.71 5.52,2.62 6.11,1.74 5.85,2.38 0.9,0.79 0.97,0.7 2.83,-0.03 4.6,2.59 4.82,-0.6 2.3,0.83 2.41,0.28 4.27,-3.4 4,-4.07 2.64,-0.09 2.62,0.76 2.69,-0.07 4.77,-2.15 1.83,-1.63 -0.15,-2.42 -0.99,-2.42 -0.1,-4.93 -0.68,-2.35 0.16,-2.48 0.66,-1.09 1.03,-0.66 1.55,-0.29 0.4,-0.62 0.31,-0.59 2.9,-0.22 2.92,0.45 2.19,0.71 1.84,1.26 1.27,2.99 1.83,2.19 0.61,-1.77 0.39,-2.28 1.65,-0.35 5.03,0.91 2.33,-1.03 3.31,-0.16 3.2,-0.87 2.13,-2.09 2.59,-0.67 2.21,1.16 2.23,0.17 1.65,-1.06 2.81,-0.93 1.25,-2.27 -0.61,-3.17 0.23,-2.32 2.3,-4.47 1.56,-1.3 2.09,1.36 2.4,-0.21 4.49,-2.09 1.19,-2.4 0.39,-2.89 -1.18,-2.33 -1.11,-0.17 -1.17,0.04 -0.63,-0.42 -0.84,0.65 -0.92,0.38 -0.62,0.04 -0.29,-0.43 0.01,-1.05 -2.75,0.45 -2.06,-1.6 -1.43,-2.54 -1.29,-3.81 -0.14,-1.1 0.43,-5.16 -0.38,-1.09 -1.41,-0.66 -1.24,-0.11 -1.86,-0.76 -1.75,-1.07 -2.1,-2.33 -0.84,-2.06 -0.52,-2.35 -0.14,-25.79 -0.01,-2.12 -0.82,-1.61 -2.56,2.45 -2.13,-0.65 -1.59,-0.28 -1.79,-0.67 -1.57,-0.79 -0.82,-0.68 v -0.01 l -0.23,-0.92 -0.45,-0.9 h -0.02 l -5.76,0.51 -5.23,-1.79 -2.8,-0.42 -2.56,-1.12 -4.21,-4.36 -2.49,-1.42 -2.59,-0.37 -0.49,1.48 -0.34,1.51 -1.03,0.92 -1.13,0.8 z"
       style="fill:#253680;fill-opacity:1;stroke:none" />
    <path
       id="LA-SL"
       title="Saravan"
       class="land"
       d="m 625.25,596.53 -0.37,-0.28 v -0.55 l 0.22,-0.41 0.29,-0.31 0.11,-0.26 0.4,-3.21 -0.26,-3.87 -1.61,-2.51 -2.2,-0.09 -1.98,3.37 -0.38,1.6 -1.03,0.99 -2.49,1.61 -0.42,0.79 -0.02,0.74 -0.17,0.73 -0.1,0.07 0.63,0.42 1.17,-0.04 1.11,0.17 1.18,2.33 -0.39,2.89 -1.19,2.4 -4.49,2.09 -2.4,0.21 -2.09,-1.36 -1.56,1.3 -2.3,4.47 -0.23,2.32 0.61,3.17 -1.25,2.27 -2.81,0.93 -1.65,1.06 -2.23,-0.17 -2.21,-1.16 -2.59,0.67 -2.13,2.09 -3.2,0.87 -3.31,0.16 -2.33,1.03 -5.03,-0.91 -1.65,0.35 -0.39,2.28 -0.61,1.77 -1.83,-2.19 -1.27,-2.99 -1.84,-1.26 -2.19,-0.71 -2.92,-0.45 -2.9,0.22 -0.31,0.59 -0.4,0.62 -1.55,0.29 -1.03,0.66 -0.66,1.09 -0.16,2.48 0.68,2.35 0.1,4.93 0.99,2.42 0.15,2.42 -1.83,1.63 -4.77,2.15 -2.69,0.07 -2.62,-0.76 -2.64,0.09 -4,4.07 -4.27,3.4 -2.41,-0.28 -2.3,-0.83 -4.82,0.6 -4.6,-2.59 -2.83,0.03 -0.97,-0.7 -0.9,-0.79 -5.85,-2.38 -6.11,-1.74 -5.52,-2.62 -7.07,-0.71 h -0.04 l 0.06,0.28 -0.53,0.71 -1,0.57 -1.92,0.78 -2.23,2.49 -0.17,3.4 1.11,3.58 3.64,7.92 1.02,1.52 1.17,1.17 1.13,0.65 1.33,0.2 3.8,-0.32 2.03,0.26 3.98,1.35 4.1,2.68 2.59,3.79 0.93,4.55 -0.93,4.92 -2.28,5.95 -0.39,2.09 -0.15,4.05 -0.57,1.72 -1.11,1.12 0.32,0.01 2.17,-0.94 1.38,-1.59 2.5,-0.26 2.21,0.92 2.17,0.52 2.14,-0.48 0.88,-0.87 1.15,-0.28 0.81,0.68 0.8,0.85 1.05,0.59 1.1,0.43 1.02,-0.39 0.85,-0.68 0.95,-0.03 0.82,0.21 5.81,-0.12 3.14,-0.7 2.45,-0.79 2.2,1.24 2.1,-0.81 2.23,-0.09 2.1,-0.51 2.05,-0.01 1.81,2.16 0.87,2.34 -1.89,2.08 -0.58,2.77 5.46,6.02 2.45,1.06 4.55,-2.88 4.04,-4.02 2.37,-1.46 2.53,-0.96 3.26,-0.49 2.91,-0.87 -5.26,-1.93 -1.52,-4.57 1.03,-0.79 1.04,-0.31 0.49,-2.39 2.16,-0.85 2.45,0.33 2.3,1.17 2.59,0.53 1.93,-1.36 0.99,-2.37 3.13,-0.52 3.42,0.6 5.48,-0.06 3.27,-2.12 4.74,0.72 1.06,-1.33 -0.22,-2.19 -0.23,-1.21 -0.02,-1.23 0.64,-1.05 0.53,-0.55 -0.67,-3.04 -1.61,-2.57 1.01,-2.04 1.38,-1.18 -1.82,-1.95 -2.28,-1.57 -0.27,-2.24 2,-1.65 2.44,-5.21 3.23,-4.75 4.29,-4.61 1.16,-0.8 0.95,-0.85 -0.37,-1.52 -0.68,-1.41 0.76,-2.94 1.52,-2.52 2.28,0.2 2.06,1.13 3.16,0.56 3.32,0.1 1.2,-0.74 0.82,-0.94 2.56,0.7 2.28,-1.08 2.19,-1.61 3.36,-1.04 0.69,-1.66 0.49,-1.87 1.71,-2.17 1.86,-1.87 1.36,-2.5 0.07,-0.22 v -0.02 l -0.24,-0.33 -0.54,-1.23 -0.98,-5.16 -0.8,-1.24 -1.77,-1.31 -1.71,-0.86 -0.24,-0.07 -1.35,-0.43 -3.61,-0.4 -3.15,0.1 -1.19,-0.15 -1,-0.69 -0.22,-0.65 -0.32,-2.16 -0.43,-0.95 -0.6,-0.54 -2.26,-1.25 -1.6,-1.33 -0.86,-1.19 -1.12,-2.61 -0.32,0.06 -0.58,0.32 z"
       style="fill:#253680;fill-opacity:1;stroke:none" />
    <path
       id="LA-CH"
       title="Champasak"
       class="land"
       d="m 550.35,835.51 1.85,-0.1 1.35,-1.66 -0.17,-4.47 1.12,-1.45 1.33,-1.35 1.66,-1.11 1.44,-1.24 0.69,-1.77 -0.46,-1.79 -1.22,-1.39 -1.48,-1.27 -1.26,-1.41 -2.35,-5.66 -1.45,-1.65 -3.17,-2.02 -1.27,-1.22 -0.78,-1.92 0.36,-2.36 -0.32,-1.84 -1.02,-1.52 -1.8,-1.46 -0.44,-1.02 -0.13,-1.09 0.15,-1.09 0.42,-1.05 1.86,0.33 4.07,1.4 1.6,-0.07 0.24,-0.45 0.23,-1.5 0.28,-0.39 0.47,-0.04 1,0.06 1.43,-0.08 2.22,0.39 3.25,0.19 1.76,-0.2 1.47,-0.88 1.37,-2.01 0.62,-2.05 0.94,-4.97 0.85,-1.62 0.55,0.58 5.61,3.48 0.9,0.23 1.27,0.1 1.22,-0.35 0.61,-0.08 0.01,-0.02 1.07,-2.47 -0.58,-1.13 -0.01,-1.26 -0.39,-2.67 -1.66,-2.42 -1.92,-1.61 -1.67,-1.74 -1.93,-7.66 -2.28,-1.84 -2.6,-1.48 -1.85,-2.16 -1.34,-2.6 -0.25,-7.03 3.85,-5.97 4.24,-4.31 3.96,-3.07 1.33,-2.47 2.21,-1.27 h 2.71 l 2.3,1.2 1.11,2.63 2.18,1.14 2.09,-1.77 2.5,-0.95 1.9,1.9 -0.32,2.94 -1.03,2.45 -0.11,1.36 0.27,1.18 -0.46,2.56 0.09,2.48 1.86,2.32 2.44,1.51 2.6,0.19 4.7,1.56 1.87,-1.3 2.78,0.12 2.79,-0.54 1.39,-2.26 0.16,-2.66 1.73,-2.06 1.65,-1.34 1.01,-1.22 3.83,-1.08 2.05,0.26 -1.45,-3.85 1.73,-2.9 -0.01,-4.86 -0.94,-4.79 -1.1,-1.49 -1.27,-1.05 -0.99,-1.73 -1.33,-1.28 -3.78,0.88 -2.03,-0.41 -1.63,-1.12 0.21,-0.33 0.09,-0.37 -0.61,0.14 -0.53,-0.08 -0.5,-8.12 -9.63,-7.69 -2.03,-0.67 -3.25,-0.14 -3.13,-1.34 -4.28,-5.4 -4.73,-1.77 -2.91,0.87 -3.26,0.49 -2.53,0.96 -2.37,1.46 -4.04,4.02 -4.55,2.88 -2.45,-1.06 -5.46,-6.02 0.58,-2.77 1.89,-2.08 -0.87,-2.34 -1.81,-2.16 -2.05,0.01 -2.1,0.51 -2.23,0.09 -2.1,0.81 -2.2,-1.24 -2.45,0.79 -3.14,0.7 -5.81,0.12 -0.82,-0.21 -0.95,0.03 -0.85,0.68 -1.02,0.39 -1.1,-0.43 -1.05,-0.59 -0.8,-0.85 -0.81,-0.68 -1.15,0.28 -0.88,0.87 -2.14,0.48 -2.17,-0.52 -2.21,-0.92 -2.5,0.26 -1.38,1.59 -2.17,0.94 -0.32,-0.01 -0.36,0.36 -3.28,2.09 -4.31,1.38 -1.84,1.22 -0.81,2.11 0.54,1.76 1.45,0.94 1.88,0.35 1.77,-0.05 1.8,-0.34 0.32,0.4 0.31,2.06 -0.08,2.57 -0.34,0.16 -2.65,1.73 -2.56,2.09 -3.77,3.98 -0.8,1.33 -0.62,1.94 -0.36,2.06 -0.02,2.15 0.77,1.58 2.02,0.4 2.26,2.34 0.49,0.12 1.2,-0.21 0.4,0.09 0.21,0.48 -0.03,1.06 0.13,0.39 2.71,3.89 1.16,0.89 v 0.01 h 0.02 0.01 l 2.46,0.49 -0.88,1.26 -3.66,2.35 -0.9,1.82 1.52,3.03 -0.7,2.13 -0.5,0.19 -1.46,-0.06 -0.38,0.1 -0.17,0.57 0.1,1.45 0.65,1.34 0.03,0.5 -0.4,0.36 -1.28,0.29 -0.43,0.3 -0.71,1.75 -0.43,2.17 0.14,2.15 1,1.71 0.33,0.91 -0.71,4.39 -0.15,2.92 1.33,6.33 -0.24,2.82 -1.12,2.57 -2.94,3.93 -2.15,1.96 -0.6,0.71 -0.46,0.93 -0.79,2.19 -0.4,0.67 -0.95,0.49 -2.45,0.46 -1.07,0.35 -0.74,0.6 -1.74,1.74 -0.53,0.41 -1.18,-0.06 -1.63,-1.13 -0.91,-0.08 -0.65,0.55 -1.11,2.02 -0.66,0.74 -1.68,0.69 -4.82,1.14 -1.29,-0.05 v 3.01 l 0.34,2.21 0.88,1.97 5.49,8.37 1.7,1.68 0.64,0.34 1.33,0.42 0.68,0.43 2.35,3.32 0.77,0.72 0.93,0.37 1.5,0.19 2.62,0.03 2.75,-0.39 2.58,-0.88 2.19,-1.47 1.54,-0.42 1.37,-0.77 2.58,-1.84 0.74,0.49 0.71,0.58 0.61,0.67 0.54,0.75 1.4,-0.55 1.67,0.73 1.41,1.48 0.68,1.69 1.45,-1.05 0.95,0.06 0.93,0.61 1.49,0.63 1.32,0.15 1.98,-0.3 1.01,0.04 2.59,1.39 1.37,2.33 1.04,2.65 1.57,2.34 7.94,6.98 2.08,1.14 0.38,0.21 2.3,0.53 2.27,-0.24 2.29,-0.92 2.17,0.09 z"
       style="fill:#253680;fill-opacity:1;stroke:none" />
    <path
       id="LA-XA"
       title="Xaignabouri"
       class="land"
       d="m 156.51,281.43 -2.64,-0.12 -1.03,-2.5 -0.08,-5.93 0.87,-1.81 1.64,-4.5 -0.13,-4.69 -1.01,-1.86 -1.49,-1.42 -1.36,-1.73 -2.06,-2.6 -1.09,0.83 -2.71,2.68 -0.93,0.57 -1.41,0.44 -2,1.02 -1.17,1.11 1.11,0.73 -2.03,2.39 -3.46,0.77 -27.86,0.21 -2.15,-0.63 -6.01,-4.05 -1.77,-0.91 -0.78,-0.54 -0.98,-0.48 -1.18,-0.06 -0.86,0.35 -2.3,1.66 -2.29,2.25 -1.51,0.49 -1.24,-1.45 h -0.69 l -0.26,0.54 -0.6,0.89 -0.34,0.7 -3.22,-2.51 -4.3,-1.35 -11.28,-1.84 -1.27,0.1 -1.17,0.6 -1.51,1.39 -1.35,1.25 -6.5,3.85 -0.87,0.37 -1.23,0.15 -1.26,-0.29 -0.92,0.05 -0.94,0.54 -1.85,0.75 -1.98,-0.11 -2.81,1.74 -3.06,0.64 -3.13,0.11 -3.98,-1.06 -2.97,-0.48 -2.23,2.98 -0.4,1.79 0.43,1.34 0.58,0.75 0.96,1.25 0.63,1.15 0.3,1.54 0.22,3.2 0.55,1.69 0.76,1.23 1.88,2.36 0.75,1.29 0.31,1.62 v 1.6 l 0.28,1.44 1.14,1.19 1.62,1.03 2.66,1.16 2.65,0.79 1.6,-0.11 0.75,-1.24 1.04,-1.73 1.94,-1.47 2.43,-0.12 7.53,2.92 1.34,0.76 0.82,0.94 0.68,0.99 0.69,0.25 0.89,-1.28 4.23,-4.02 3.75,-4.51 1.13,-1.97 0.35,-0.45 0.89,-0.56 0.48,-0.07 0.54,0.11 8.19,-0.1 2.61,0.28 2.01,0.76 4.06,2.53 2.55,0.96 2.66,0.21 2.59,-0.32 2.23,-0.62 1.06,-0.59 0.83,-0.6 0.99,-0.26 1.57,0.42 1.22,0.69 0.74,0.78 0.45,0.97 0.35,1.29 0.19,2.39 -0.48,2.78 -1.25,2.17 -2.12,0.58 -2.07,1.33 -1.39,3.49 -0.5,4 0.56,2.91 0.61,0.46 1.56,0.32 0.54,0.39 0.32,0.82 -0.03,0.56 -0.15,0.49 0.02,0.61 1.88,8.18 -0.29,5.74 0.22,2.3 0.61,1.52 1.08,1.2 4.04,3.6 2.47,2.82 0.79,2.89 -3.92,3.82 -0.64,1.41 -0.9,3.18 -0.93,1.46 -2.25,2.62 -0.74,1.75 -0.15,1.88 0.5,5.85 -0.43,1.66 -1.37,3.15 -0.31,1.58 0.5,1.78 2.17,2.18 0.5,1.55 -0.5,1.48 -1.18,1.6 -2.57,2.46 -0.81,0.42 -1.63,0.6 -0.63,0.64 -0.26,0.96 0.09,2.17 -0.34,1.07 -1.23,1.21 -5.93,3.3 -0.38,0.45 -0.17,0.99 -0.67,1.87 -2.69,2.79 -0.49,1.95 0.62,1.69 1.3,1.75 2.13,2.03 0.75,0.72 5.85,2.72 0.91,1.3 -0.28,0.64 -1.57,1.75 -0.48,0.7 -0.2,0.99 0.03,3.43 0.31,0.67 0.73,1.96 0.55,0.55 0.67,0.39 0.6,0.48 0.32,0.85 -0.21,1.54 -1.37,3.65 -0.37,1.75 0.31,1.87 1.58,3.62 0.28,1.37 -0.7,1.26 -2.97,1.86 -1.21,0.97 -1.61,2.62 -1.19,2.53 -1.46,2.36 -2.44,2.13 -2.91,1.63 -0.69,1.02 -0.34,1.96 0.29,3.31 -0.51,1.24 -1.89,0.82 -0.67,0.53 -0.17,0.6 0.23,0.64 0.61,0.68 0.08,0.2 0.03,0.21 -0.03,0.21 -0.08,0.2 -0.87,0.48 -0.59,0.63 -0.2,0.79 0.22,0.99 0.18,1.96 -0.44,1.75 -0.19,0.75 -1.93,4.39 -3.1,3.64 -1.27,2.04 0.03,2.15 1.47,1.14 3.31,0.63 4.04,0.76 1.79,0.91 1.68,1.12 1.52,1.36 1.28,1.64 1.56,0.34 2.75,1.64 2.65,1.1 0.39,0.27 0.32,-0.05 0.88,-0.53 0.49,-0.52 1.58,-2.25 v -0.01 l 0.23,-1.43 0.94,-0.57 1.23,-0.22 1.1,-0.43 0.59,-0.79 1.86,-3.6 1.7,-2.3 10.18,-8.42 1.17,-0.4 0.7,0.05 0.58,-0.22 1.65,-2.11 0.14,-0.27 0.08,-0.59 -0.49,-0.16 -0.96,-0.06 -0.59,-0.28 0.56,-0.83 1.28,-0.44 1.4,0.14 1.39,-0.12 1.22,-1.18 0.42,-0.34 0.34,-0.17 0.24,0.08 0.12,0.43 0.16,0.61 0.85,1.85 0.2,-0.21 0.34,-0.78 0.45,-0.72 0.37,-0.75 1.82,-1.9 3.12,-1.34 1.83,-1.26 -2.06,-1.69 1.06,-0.4 -0.02,-0.02 -0.16,-0.16 -0.61,-0.48 v -0.6 l 1.65,-2.95 0.25,-0.73 -0.59,-1.02 -1.27,0.15 -1.31,0.67 -0.68,0.57 h -0.63 l -0.45,-1.46 -0.8,-0.32 -2.25,0.45 -1.37,-0.28 -0.63,-0.72 -0.42,-0.98 -1.97,-3.3 0.1,-2.5 0.58,-2.72 0.21,-2.88 -0.57,-6.97 -0.38,-1.2 -1.72,-3.06 -0.48,-1.32 0.38,-3.97 1.62,-3.16 4.31,-4.94 0.81,-1.48 0.46,-1.27 0.86,-0.9 2.02,-0.34 1.63,-0.54 1.57,-1.29 1.34,-1.56 0.89,-1.32 0.22,-0.93 0.07,-1.1 0.33,-0.91 1.4,-0.57 2.05,-1.42 1.04,-1.52 1.68,-3.55 1.4,-1.3 1.01,0.55 1.16,0.09 1.18,-0.23 1.07,-0.41 2.06,-1.71 0.2,-0.29 0.97,-1.05 1.97,-4.61 1.43,-1.88 2.89,-5.16 0.42,-1.85 0.4,-4.09 0.44,-2.05 2.77,-5.82 0.69,-2.93 -0.99,-3.25 -3.89,-4.26 -0.53,-1.49 0.23,-1.82 0.95,-3.62 0.08,-2.26 -0.17,-2.01 -0.25,-0.91 -0.49,-0.75 -0.36,-0.84 0.17,-1.04 0.34,-1.11 0.16,-1.7 0.92,-9.51 0.78,-3.28 0.17,-1.97 -0.61,-5.8 0.03,-1.85 0.56,-1.29 2.13,-3.25 0.46,-1.91 0.72,-1.5 3.07,-3.24 0.63,-0.97 -0.91,-1.09 -3.64,-1.65 -1.44,-0.94 -1.13,-1.3 -0.76,-1.28 -0.39,-1.41 -0.16,-13.08 0.86,-3.41 -0.87,-0.69 z"
       style="fill:#253680;fill-opacity:1;stroke:none" />
    <path
       id="LA-LM"
       title="Louang Namtha"
       class="land"
       d="m 104.77,112.07 -1.71,-1.25 -2.67,-1.46 -0.71,-0.52 -0.29,-2.09 1.8,-8.08 -0.11,-2.92 -1.11,-1.63 -1.43,-0.1 0.19,1.79 -0.37,1.49 -1.29,0.62 -12.91,10.67 -8.64,4.55 -1.28,0.43 -3.11,3.22 -1.02,0.85 -3.4,1.44 -2.09,0.28 -1.79,-0.68 -0.7,-0.49 -0.77,-0.32 -0.83,-0.18 -0.86,-0.05 -1.2,0.3 -0.31,0.8 0.05,1.09 -0.14,1.19 -2.93,12.02 -4.78,8.88 -1.12,1.54 -1.73,1.01 -4.15,0.88 -1.7,0.76 1.14,2.73 0.14,0.77 -0.49,0.66 -1.73,1.18 -0.37,0.5 -0.2,2.12 -0.86,4.02 -0.19,1.96 1.71,1.24 8.21,-1.44 2.68,0.57 v 0.61 l -2.36,2.28 -1.74,1.35 0.11,0.21 2.42,3.42 4.24,1.31 3.38,2.84 1.54,4.44 1.61,1.85 2.03,1.54 1.41,1.97 0.89,2.25 2.37,4.48 -0.04,4.14 0.76,5.13 2.95,1.21 6.85,-0.84 2.58,1.96 2.01,3.11 1.53,3.49 -0.02,3.23 0.27,2.52 3.41,2.86 2.03,0.77 5.68,1.44 6.45,-1.58 2.9,0.71 -0.1,-1.03 4.53,0.31 9.27,-0.6 7.24,-3.35 3.05,-5.8 1.62,-2.28 1.79,-1.7 1.4,-2.05 2.59,-7.79 -0.71,-7.75 -0.77,-1.51 -3.37,-2.69 -0.98,-2.47 -8.93,-3.07 3.31,-1.74 3.34,-6.58 4.19,-3.82 3.58,-0.87 1.44,-0.7 4,0.03 0.5,-1.52 -1.11,-1.48 0.28,-3.78 3.1,-2.73 3.56,-1.84 3.59,-1.36 2.01,-3.06 1.45,-3.54 1.09,-7.55 -1.08,-1.87 -0.16,0.98 -0.99,0.73 -1.71,0.56 -1.81,0.31 -1.26,-0.06 -1.47,-1.07 -1.68,-3.09 -1.39,-1.2 -1.77,-0.03 -3.64,1.59 -1.36,-0.22 -0.42,-0.95 0.34,-0.94 0.52,-0.94 0.15,-0.91 -0.39,-1.09 -0.4,-0.32 -0.63,-0.06 -3.12,-1.06 -1.98,-0.37 -2.08,-0.02 -10.5,2.02 -1.78,0.66 -4.47,3.08 -1.95,0.86 -1.61,0.19 -1.44,-0.53 -1.42,-1.33 -0.89,-1.32 -1.33,-2.72 -1.05,-1.18 0.93,-3.66 0.12,-1.37 -0.18,-0.36 -0.82,-0.87 -0.19,-0.61 1.42,-2.01 1.1,-2.83 -0.15,-0.8 -0.21,-0.01 z"
       style="fill:#253680;fill-opacity:1;stroke:none" />
    <path
       id="LA-BK"
       title="Bokeo"
       class="land"
       d="m 71.27,199.45 -2.95,-1.21 -0.76,-5.13 0.04,-4.14 -2.37,-4.48 -0.89,-2.25 -1.41,-1.97 -2.03,-1.54 -1.61,-1.85 -1.54,-4.44 -3.38,-2.84 -4.24,-1.31 -2.42,-3.42 -0.11,-0.21 -0.82,0.63 -2.76,1.55 -2.98,1 -2.16,0.07 -3.93,-1.11 -8.05,-1.33 -1.74,0.35 -1.27,1.27 -0.85,1.56 -1.13,1.33 -3.65,1.09 -1.45,1.29 -2.38,2.96 -2.5,2.21 -0.96,1.21 -0.38,1.64 -0.45,1.27 -2.04,2.94 -0.67,1.58 v 1.29 l -1.19,2.61 -1,3.41 -1.16,8.76 -0.86,3.1 -0.2,2.11 -0.4,1.74 -0.9,1.37 -1.05,1.25 -0.25,1.36 0.05,1.33 0.15,1.68 -0.18,3.41 0.52,1.93 1.26,1.54 1.67,0.88 1.65,-0.01 1.41,-1.42 -0.06,-3.84 0.86,-0.79 0.28,-0.19 2.06,-0.77 0.5,-0.08 0.18,-0.18 1.07,-3.55 1.82,-2.35 2.76,-1.87 3.35,-0.78 3.49,0.96 1.86,2.07 5.28,11.7 2.38,3.17 0.44,0.77 0.48,1.36 0.35,0.56 0.71,0.49 1.56,0.69 0.3,0.53 0.69,0.83 1.52,0.95 1.52,0.54 0.69,-0.36 0.48,-1.31 0.42,-0.12 0.2,0.98 0.18,5.07 -0.67,3.93 -2.29,6.99 v 0 l -2.39,6.27 -0.44,3.41 -0.36,1.6 -0.9,1.51 -0.8,0.54 -1.79,0.76 -0.72,0.48 -0.65,0.88 -1.01,2.73 -1.19,1.59 2.97,0.48 3.98,1.06 3.13,-0.11 3.06,-0.64 2.81,-1.74 1.98,0.11 1.85,-0.75 0.94,-0.54 0.92,-0.05 1.26,0.29 1.23,-0.15 0.87,-0.37 6.5,-3.85 1.35,-1.25 -1.85,-4.44 -0.13,-4.04 7.49,-2.74 8.44,-0.3 2.07,-0.91 1.95,-1.15 2.22,-2.23 1.87,-2.47 0.91,-3.47 2.91,-1.93 3.62,-0.66 5.42,3.97 3.14,0.4 2.91,-1.52 2.09,-2.14 1.36,-2.46 0.25,-10.97 -0.2,-1.56 -0.91,-2.17 -0.56,-2.26 -2.9,-0.71 -6.45,1.58 -5.68,-1.44 -2.03,-0.77 -3.41,-2.86 -0.27,-2.52 0.02,-3.23 -1.53,-3.49 -2.01,-3.11 -2.58,-1.96 z"
       style="fill:#253680;fill-opacity:1;stroke:none" />
  </g>
</svg>
