<svg xmlns="http://www.w3.org/2000/svg" width="35.728" height="35.793" viewBox="0 0 35.728 35.793">
  <g id="Group_30" data-name="Group 30" transform="translate(-11.003 552.104)">
    <path id="Path_1" data-name="Path 1" d="M539.2-552.017a.634.634,0,0,0,.065,1.127.624.624,0,0,0,.515-1.135A.549.549,0,0,0,539.2-552.017Z" transform="translate(-510.382 0)" fill="#253680"/>
    <path id="Path_2" data-name="Path 2" d="M538.015-493.055l-.237.237v3.4a28.143,28.143,0,0,0,.09,3.594.64.64,0,0,0,1.127,0,28.3,28.3,0,0,0,.09-3.594v-3.4l-.237-.237a.787.787,0,0,0-.417-.237A.791.791,0,0,0,538.015-493.055Z" transform="translate(-509.316 -56.863)" fill="#253680"/>
    <path id="Path_3" data-name="Path 3" d="M894.124-473.144a.634.634,0,0,0,.065,1.127.624.624,0,0,0,.515-1.135A.549.549,0,0,0,894.124-473.144Z" transform="translate(-853.548 -76.259)" fill="#253680"/>
    <path id="Path_4" data-name="Path 4" d="M223.631-433.733a.638.638,0,0,0-.269.8c.057.131.122.245.155.245a14.322,14.322,0,0,1,1.936,1.8,17.253,17.253,0,0,1,2.1,3.161c.384.727.523.931.727,1.013a.626.626,0,0,0,.8-.359c.114-.213.106-.253-.359-1.185a16.185,16.185,0,0,0-3.643-4.795C224.137-433.855,224.014-433.921,223.631-433.733Z" transform="translate(-205.274 -114.363)" fill="#253680"/>
    <path id="Path_5" data-name="Path 5" d="M381.449-433.707a.634.634,0,0,0,.065,1.127.624.624,0,0,0,.515-1.135A.549.549,0,0,0,381.449-433.707Z" transform="translate(-357.864 -114.389)" fill="#253680"/>
    <path id="Path_6" data-name="Path 6" d="M696.941-433.707a.633.633,0,0,0,.065,1.127.624.624,0,0,0,.515-1.135A.548.548,0,0,0,696.941-433.707Z" transform="translate(-662.901 -114.389)" fill="#253680"/>
    <path id="Path_7" data-name="Path 7" d="M720.743-433.765a14.007,14.007,0,0,0-2.124,1.936,19.887,19.887,0,0,0-2.377,3.561c-.449.9-.458.94-.343,1.152a.62.62,0,0,0,.792.359c.2-.082.343-.294.727-1.013a14.532,14.532,0,0,1,3.349-4.386c.8-.678.825-.7.89-.907a.679.679,0,0,0-.335-.719A.517.517,0,0,0,720.743-433.765Z" transform="translate(-681.474 -114.323)" fill="#253680"/>
    <path id="Path_8" data-name="Path 8" d="M14.665-401.865c-.1.122-.425.482-.735.809l-.556.588-1.013-.433c-.556-.237-1.021-.417-1.038-.408s.221.458.515.988c.474.833.523.972.433,1.094-.065.074-.384.433-.711.809a3.091,3.091,0,0,0-.556.72,6.55,6.55,0,0,0,1.078-.155l1.038-.2.18.294c.1.163.367.6.588.972l.4.678.057-.311c.033-.171.1-.686.147-1.135l.1-.833,1.054-.229a6.253,6.253,0,0,0,1.054-.278,6.124,6.124,0,0,0-.988-.515l-.988-.466.041-.269a12.556,12.556,0,0,0,.114-1.936A.772.772,0,0,0,14.665-401.865Z" transform="translate(0 -145.055)" fill="#253680"/>
    <path id="Path_9" data-name="Path 9" d="M539.2-236.525a.634.634,0,0,0,.065,1.127.624.624,0,0,0,.515-1.135A.549.549,0,0,0,539.2-236.525Z" transform="translate(-510.382 -305.036)" fill="#253680"/>
    <path id="Path_10" data-name="Path 10" d="M854.687-236.525a.634.634,0,0,0,.065,1.127.624.624,0,0,0,.515-1.135A.549.549,0,0,0,854.687-236.525Z" transform="translate(-815.419 -305.036)" fill="#253680"/>
    <path id="Path_11" data-name="Path 11" d="M263.139-216.8a.634.634,0,0,0,.065,1.127.624.624,0,0,0,.515-1.135A.55.55,0,0,0,263.139-216.8Z" transform="translate(-243.476 -324.104)" fill="#253680"/>
    <path id="Path_12" data-name="Path 12" d="M420.885-197.088a.634.634,0,0,0,.065,1.127.624.624,0,0,0,.515-1.135A.549.549,0,0,0,420.885-197.088Z" transform="translate(-395.994 -343.166)" fill="#253680"/>
    <path id="Path_13" data-name="Path 13" d="M657.5-197.088a.634.634,0,0,0,.065,1.127.624.624,0,0,0,.515-1.135A.549.549,0,0,0,657.5-197.088Z" transform="translate(-624.771 -343.166)" fill="#253680"/>
    <path id="Path_14" data-name="Path 14" d="M411.489-184.59l-.727,1.078-1-1.054c-1.16-1.217-1.086-1.258-.89.5.065.539.106.988.1,1s-1.9-.213-2.72-.335c-.245-.033-.2.033.67.866a12.591,12.591,0,0,1,.94.956,13.667,13.667,0,0,1-1.217.825c-.67.425-1.217.784-1.209.792s.588.057,1.283.114,1.274.1,1.291.114-.163.6-.392,1.323-.408,1.348-.408,1.4a4.765,4.765,0,0,0,1.029-.653,4.4,4.4,0,0,1,1.086-.67c.041.041.3.637.58,1.323a5.59,5.59,0,0,0,.572,1.184A9.7,9.7,0,0,0,410.8-177c.147-.6.286-1.127.3-1.16a7.519,7.519,0,0,1,1.331.588,13.3,13.3,0,0,0,1.307.612c0-.025-.245-.531-.547-1.136a6.664,6.664,0,0,1-.5-1.152,10.506,10.506,0,0,1,1.348-.343,13.664,13.664,0,0,0,1.348-.343,4.137,4.137,0,0,0-1.021-.531c-.588-.27-1.111-.507-1.144-.54a6.518,6.518,0,0,1,.792-1.184,10.54,10.54,0,0,0,.825-1.168,11.724,11.724,0,0,0-1.2.3c-.645.188-1.2.335-1.233.335a2.113,2.113,0,0,1-.065-.719c-.008-.392-.033-1.054-.065-1.47l-.049-.768Z" transform="translate(-381.353 -354.284)" fill="#253680"/>
    <path id="Path_15" data-name="Path 15" d="M776.4-105.72c-1.242.122-1.307.139-1.495.359-.261.3-.245.506.041.8.278.278.172.269,1.519.114a15.554,15.554,0,0,1,3.774-.008,12.133,12.133,0,0,1,2.034.686c.319.122.351.122.556-.016a.593.593,0,0,0,.3-.768c-.122-.294-.817-.637-1.911-.948A11.415,11.415,0,0,0,776.4-105.72Z" transform="translate(-738.408 -431.455)" fill="#253680"/>
    <path id="Path_16" data-name="Path 16" d="M716.665-98.491a.634.634,0,0,0,.065,1.127.624.624,0,0,0,.515-1.135A.549.549,0,0,0,716.665-98.491Z" transform="translate(-681.971 -438.495)" fill="#253680"/>
    <path id="Path_17" data-name="Path 17" d="M89.27-88.4a13.33,13.33,0,0,0-3.488.907c-.335.147-.49.269-.556.441a.609.609,0,0,0,.335.809c.213.09.319.074.915-.163.368-.147,1.021-.359,1.446-.474A6.828,6.828,0,0,1,90.21-87.1a9.283,9.283,0,0,1,2.181.139c.572.131.711.131.9.041A.616.616,0,0,0,93.331-88,12.814,12.814,0,0,0,89.27-88.4Z" transform="translate(-71.714 -448.304)" fill="#253680"/>
    <path id="Path_18" data-name="Path 18" d="M361.736-78.779a.634.634,0,0,0,.065,1.127.624.624,0,0,0,.515-1.135A.549.549,0,0,0,361.736-78.779Z" transform="translate(-338.805 -457.554)" fill="#253680"/>
    <path id="Path_19" data-name="Path 19" d="M1051.87-59.058a.634.634,0,0,0,.065,1.127.624.624,0,0,0,.515-1.135A.55.55,0,0,0,1051.87-59.058Z" transform="translate(-1006.066 -476.622)" fill="#253680"/>
    <path id="Path_20" data-name="Path 20" d="M26.52-39.342a.634.634,0,0,0,.065,1.127A.624.624,0,0,0,27.1-39.35.549.549,0,0,0,26.52-39.342Z" transform="translate(-14.698 -495.684)" fill="#253680"/>
    <path id="Path_21" data-name="Path 21" d="M933.56-19.621a.634.634,0,0,0,.065,1.127.624.624,0,0,0,.515-1.135A.55.55,0,0,0,933.56-19.621Z" transform="translate(-891.678 -514.751)" fill="#253680"/>
    <path id="Path_22" data-name="Path 22" d="M164.554.093a.634.634,0,0,0,.065,1.127.624.624,0,0,0,.515-1.136A.55.55,0,0,0,164.554.093Z" transform="translate(-148.157 -533.812)" fill="#253680"/>
    <path id="Path_23" data-name="Path 23" d="M381.449,39.529a.634.634,0,0,0,.065,1.127.624.624,0,0,0,.515-1.136A.55.55,0,0,0,381.449,39.529Z" transform="translate(-357.864 -571.942)" fill="#253680"/>
    <path id="Path_24" data-name="Path 24" d="M696.941,39.529a.634.634,0,0,0,.065,1.127.624.624,0,0,0,.515-1.136A.549.549,0,0,0,696.941,39.529Z" transform="translate(-662.901 -571.942)" fill="#253680"/>
    <path id="Path_25" data-name="Path 25" d="M187.293,79.19a6.793,6.793,0,0,0-3.717,3.1,8.545,8.545,0,0,0-.727,1.2.764.764,0,0,0,.417.621c.417.172.629,0,1.291-1.038a12.98,12.98,0,0,1,.964-1.34,5,5,0,0,1,1.977-1.275c.343-.114.719-.253.841-.294a.612.612,0,0,0,.057-1.086C188.093,78.912,188.061,78.92,187.293,79.19Z" transform="translate(-166.15 -610.156)" fill="#253680"/>
    <path id="Path_26" data-name="Path 26" d="M775.687,79.054a.711.711,0,0,0-.163,1.029,5.844,5.844,0,0,0,.817.294,5.924,5.924,0,0,1,3.374,2.965c.351.6.49.76.67.8a.622.622,0,0,0,.751-.376c.106-.245.09-.294-.163-.8a11,11,0,0,0-1.707-2.287,6.467,6.467,0,0,0-2.826-1.609C775.965,78.94,775.924,78.94,775.687,79.054Z" transform="translate(-739.032 -610.159)" fill="#253680"/>
    <path id="Path_27" data-name="Path 27" d="M85.68,118.4a.634.634,0,0,0,.065,1.127.624.624,0,0,0,.515-1.136A.55.55,0,0,0,85.68,118.4Z" transform="translate(-71.898 -648.201)" fill="#253680"/>
    <path id="Path_28" data-name="Path 28" d="M480.046,118.4a.634.634,0,0,0,.065,1.127.624.624,0,0,0,.515-1.136A.55.55,0,0,0,480.046,118.4Z" transform="translate(-453.193 -648.201)" fill="#253680"/>
    <path id="Path_29" data-name="Path 29" d="M618.068,118.4a.634.634,0,0,0,.065,1.127.624.624,0,0,0,.515-1.136A.55.55,0,0,0,618.068,118.4Z" transform="translate(-586.641 -648.201)" fill="#253680"/>
    <path id="Path_30" data-name="Path 30" d="M417,177.68a8.351,8.351,0,0,0-1.274,2.434,9.363,9.363,0,0,0-.474,3.978,5.2,5.2,0,0,0,.18.956.623.623,0,0,0,.8.294c.335-.139.441-.433.335-.972a9.536,9.536,0,0,1,.033-2.638,8.856,8.856,0,0,1,.915-2.549c.351-.694.441-.939.4-1.127A.607.607,0,0,0,417,177.68Z" transform="translate(-390.803 -705.518)" fill="#253680"/>
    <path id="Path_31" data-name="Path 31" d="M637.236,177.6a.667.667,0,0,0-.31.694,4.187,4.187,0,0,0,.5.76,6.787,6.787,0,0,1,1.405,4.386,8.979,8.979,0,0,0,.122,1.528.614.614,0,0,0,1.127-.024,12.034,12.034,0,0,0-.122-3.137,8.277,8.277,0,0,0-1.527-3.529C637.9,177.547,637.669,177.424,637.236,177.6Z" transform="translate(-605.164 -705.45)" fill="#253680"/>
    <path id="Path_32" data-name="Path 32" d="M144.83,256.433a.634.634,0,0,0,.065,1.127.624.624,0,0,0,.515-1.136A.551.551,0,0,0,144.83,256.433Z" transform="translate(-129.087 -781.657)" fill="#253680"/>
    <path id="Path_33" data-name="Path 33" d="M795.538,256.433a.633.633,0,0,0,.065,1.127.624.624,0,0,0,.515-1.136A.551.551,0,0,0,795.538,256.433Z" transform="translate(-758.23 -781.657)" fill="#253680"/>
    <path id="Path_34" data-name="Path 34" d="M953.284,256.433a.633.633,0,0,0,.065,1.127.624.624,0,0,0,.515-1.136A.551.551,0,0,0,953.284,256.433Z" transform="translate(-910.748 -781.657)" fill="#253680"/>
    <path id="Path_35" data-name="Path 35" d="M302.576,295.869a.634.634,0,0,0,.065,1.127.624.624,0,0,0,.515-1.136A.551.551,0,0,0,302.576,295.869Z" transform="translate(-281.605 -819.786)" fill="#253680"/>
    <path id="Path_36" data-name="Path 36" d="M780.731,351.453c-.041.18-.163.654-.261,1.062a6.369,6.369,0,0,1-.229.792,6.522,6.522,0,0,1-1.1.18c-.572.065-1.054.131-1.07.147a6.591,6.591,0,0,0,.9.6,5.182,5.182,0,0,1,.94.653c0,.041-.106.547-.229,1.119a2.936,2.936,0,0,0-.147.988c.049-.032.425-.343.833-.694a4.972,4.972,0,0,1,.858-.637,6.509,6.509,0,0,1,1.013.531,8.615,8.615,0,0,0,.915.5,9.847,9.847,0,0,0-.392-1.029l-.417-1.013.433-.408c.245-.229.613-.572.833-.768a3.453,3.453,0,0,0,.384-.368c0-.008-.319.008-.71.041s-.907.057-1.135.057l-.408.008-.457-1.038-.458-1.038Z" transform="translate(-741.642 -873.303)" fill="#253680"/>
    <path id="Path_37" data-name="Path 37" d="M519.482,355.022a.634.634,0,0,0,.065,1.127.624.624,0,0,0,.515-1.136A.55.55,0,0,0,519.482,355.022Z" transform="translate(-491.323 -876.978)" fill="#253680"/>
    <path id="Path_38" data-name="Path 38" d="M420.885,433.895a.634.634,0,0,0,.065,1.127.624.624,0,0,0,.515-1.136A.55.55,0,0,0,420.885,433.895Z" transform="translate(-395.994 -953.237)" fill="#253680"/>
  </g>
</svg>
