<svg xmlns="http://www.w3.org/2000/svg" width="30.295" height="30.295" viewBox="0 0 30.295 30.295">
  <path id="Icon_awesome-landmark" data-name="Icon awesome-landmark" d="M29.681,5.45,15.813.121a1.891,1.891,0,0,0-1.33,0L.614,5.45A.947.947,0,0,0,0,6.337V8.521a.946.946,0,0,0,.947.947h28.4a.946.946,0,0,0,.947-.947V6.337A.947.947,0,0,0,29.681,5.45ZM3.787,11.361v9.467H2.84a.946.946,0,0,0-.947.947v2.84H28.4v-2.84a.946.946,0,0,0-.947-.947h-.947V11.361H22.721v9.467h-5.68V11.361H13.254v9.467H7.574V11.361ZM29.349,26.508H.947A.946.946,0,0,0,0,27.455v1.893a.946.946,0,0,0,.947.947h28.4a.946.946,0,0,0,.947-.947V27.455A.946.946,0,0,0,29.349,26.508Z" fill="#253680"/>
</svg>
