<svg xmlns="http://www.w3.org/2000/svg" width="28" height="27.999" viewBox="0 0 28 27.999">
  <path id="Icon_awesome-paint-brush" data-name="Icon awesome-paint-brush" d="M9.133,16.917A5.535,5.535,0,0,0,3.819,20.87a.835.835,0,0,1-.8.546C2.413,21.416.535,19.9,0,19.538,0,24.041,2.074,28,7,28c4.148,0,7-2.394,7-6.573a4.738,4.738,0,0,0-.053-.5L9.133,16.917ZM25.04,0a3.34,3.34,0,0,0-2.2.9C11.663,10.885,10.5,11.12,10.5,14.059a5.063,5.063,0,0,0,.477,2.116l3.49,2.908a5.032,5.032,0,0,0,1.224.166c3.4,0,5.365-2.487,11.547-14.025A5.627,5.627,0,0,0,28,2.71,2.848,2.848,0,0,0,25.04,0Z" transform="translate(0.001)" fill="#253680"/>
</svg>
