<svg xmlns="http://www.w3.org/2000/svg" width="30.725" height="27.311" viewBox="0 0 30.725 27.311">
  <path id="Icon_awesome-map-marked" data-name="Icon awesome-map-marked" d="M15.363,0A6.721,6.721,0,0,0,8.641,6.721c0,3,4.393,8.471,6.076,10.456a.841.841,0,0,0,1.291,0c1.683-1.985,6.076-7.455,6.076-10.456A6.721,6.721,0,0,0,15.363,0ZM1.073,11.519A1.707,1.707,0,0,0,0,13.1V26.457a.854.854,0,0,0,1.17.793L8.535,23.9V11.464A16.154,16.154,0,0,1,7.4,8.988Zm14.289,7.666a2.549,2.549,0,0,1-1.948-.9c-1.049-1.238-2.164-2.647-3.173-4.092V23.9l10.242,3.414V14.189c-1.009,1.445-2.124,2.855-3.173,4.092A2.55,2.55,0,0,1,15.363,19.186ZM29.555,8.6,22.19,11.949V27.311l7.462-2.984a1.707,1.707,0,0,0,1.073-1.585V9.389A.854.854,0,0,0,29.555,8.6Z" fill="#f9d552"/>
</svg>
