<svg xmlns="http://www.w3.org/2000/svg" width="23.889" height="27.302" viewBox="0 0 23.889 27.302">
  <path id="Icon_awesome-calendar-alt" data-name="Icon awesome-calendar-alt" d="M0,24.743A2.56,2.56,0,0,0,2.56,27.3H21.33a2.56,2.56,0,0,0,2.56-2.56v-14.5H0ZM17.064,14.291a.642.642,0,0,1,.64-.64h2.133a.642.642,0,0,1,.64.64v2.133a.642.642,0,0,1-.64.64H17.7a.642.642,0,0,1-.64-.64Zm0,6.826a.642.642,0,0,1,.64-.64h2.133a.642.642,0,0,1,.64.64V23.25a.642.642,0,0,1-.64.64H17.7a.642.642,0,0,1-.64-.64Zm-6.826-6.826a.642.642,0,0,1,.64-.64h2.133a.642.642,0,0,1,.64.64v2.133a.642.642,0,0,1-.64.64H10.878a.642.642,0,0,1-.64-.64Zm0,6.826a.642.642,0,0,1,.64-.64h2.133a.642.642,0,0,1,.64.64V23.25a.642.642,0,0,1-.64.64H10.878a.642.642,0,0,1-.64-.64ZM3.413,14.291a.642.642,0,0,1,.64-.64H6.186a.642.642,0,0,1,.64.64v2.133a.642.642,0,0,1-.64.64H4.053a.642.642,0,0,1-.64-.64Zm0,6.826a.642.642,0,0,1,.64-.64H6.186a.642.642,0,0,1,.64.64V23.25a.642.642,0,0,1-.64.64H4.053a.642.642,0,0,1-.64-.64ZM21.33,3.413H18.77V.853A.856.856,0,0,0,17.917,0H16.211a.856.856,0,0,0-.853.853v2.56H8.532V.853A.856.856,0,0,0,7.679,0H5.972a.856.856,0,0,0-.853.853v2.56H2.56A2.56,2.56,0,0,0,0,5.972v2.56H23.889V5.972A2.56,2.56,0,0,0,21.33,3.413Z" fill="#253680"/>
</svg>
