<svg xmlns="http://www.w3.org/2000/svg" width="32.111" height="25.689" viewBox="0 0 32.111 25.689">
  <path id="Icon_awesome-car-alt" data-name="Icon awesome-car-alt" d="M29.345,14.423l-.752-1.88L27.26,9.21A7.456,7.456,0,0,0,20.3,4.5h-8.5A7.457,7.457,0,0,0,4.851,9.21L3.517,12.543l-.752,1.88A4.272,4.272,0,0,0,0,18.415v3.211a4.247,4.247,0,0,0,1.07,2.805v3.617a2.141,2.141,0,0,0,2.141,2.141H5.352a2.141,2.141,0,0,0,2.141-2.141V25.907H24.618v2.141a2.141,2.141,0,0,0,2.141,2.141H28.9a2.141,2.141,0,0,0,2.141-2.141V24.431a4.244,4.244,0,0,0,1.07-2.805V18.415A4.272,4.272,0,0,0,29.345,14.423ZM8.826,10.8a3.211,3.211,0,0,1,2.982-2.018h8.5A3.211,3.211,0,0,1,23.285,10.8l1.333,3.333H7.493L8.826,10.8ZM5.352,21.612a2.019,2.019,0,0,1-2.141-2.134,2.019,2.019,0,0,1,2.141-2.134,4.118,4.118,0,0,1,3.211,3.2C8.563,21.826,6.636,21.612,5.352,21.612Zm21.407,0c-1.284,0-3.211.213-3.211-1.067a4.118,4.118,0,0,1,3.211-3.2A2.019,2.019,0,0,1,28.9,19.478a2.019,2.019,0,0,1-2.141,2.134Z" transform="translate(0 -4.5)" fill="#253680"/>
</svg>
