<svg xmlns="http://www.w3.org/2000/svg" width="29.197" height="19.464" viewBox="0 0 29.197 19.464">
  <path id="Icon_awesome-road" data-name="Icon awesome-road" d="M29.054,21.667,21.968,5.446A1.543,1.543,0,0,0,20.563,4.5H15.616l.124,1.174a.406.406,0,0,1-.4.448H13.859a.406.406,0,0,1-.4-.448L13.58,4.5H8.633a1.543,1.543,0,0,0-1.406.946L.142,21.667a1.619,1.619,0,0,0,1.406,2.3h9.977l.523-4.951a.811.811,0,0,1,.806-.726h3.487a.811.811,0,0,1,.806.726l.523,4.951h9.977A1.618,1.618,0,0,0,29.054,21.667ZM13.2,8.107a.406.406,0,0,1,.4-.363h1.992a.406.406,0,0,1,.4.363l.233,2.209a.608.608,0,0,1-.6.672H13.571a.608.608,0,0,1-.6-.672L13.2,8.107ZM16,16.665H13.2a.811.811,0,0,1-.806-.9l.257-2.433a.811.811,0,0,1,.806-.726h2.289a.811.811,0,0,1,.806.726l.257,2.433a.811.811,0,0,1-.806.9Z" transform="translate(0 -4.5)" fill="#253680"/>
</svg>
