<svg xmlns="http://www.w3.org/2000/svg" width="20.756" height="39.991" viewBox="0 0 20.756 39.991">
  <g id="noun_Fingers_Crossed_8534" data-name="noun_Fingers Crossed_8534" transform="translate(-24.042 0)">
    <path id="Path_39" data-name="Path 39" d="M28.689,38.435A1.967,1.967,0,0,0,26.9,37.288a1.967,1.967,0,0,0-1.791,2.779l3.144,7.248a1.965,1.965,0,0,0,3.576-1.631Z" transform="translate(-0.537 -22.386)" fill="#253680"/>
    <path id="Path_40" data-name="Path 40" d="M40.537,41.382a2.535,2.535,0,0,1-1.346-3.306,2.259,2.259,0,0,1,1.055-1.064L37.627,31a2.189,2.189,0,0,0-1.948-1.33,1.792,1.792,0,0,0-.743.16,1.854,1.854,0,0,0-1,1.146,2.3,2.3,0,0,0,.113,1.655l3.553,8.148a2.189,2.189,0,0,0,1.948,1.332,1.763,1.763,0,0,0,1.311-.574Z" transform="translate(-5.88 -17.816)" fill="#253680"/>
    <path id="Path_41" data-name="Path 41" d="M52.334,2.069l1.595,4.157.843-3.346A2.664,2.664,0,0,0,54.524.875,1.75,1.75,0,0,0,53.459.049a1.781,1.781,0,0,0-1.5.336,2.457,2.457,0,0,0-.468.454A2.793,2.793,0,0,1,52.334,2.069Z" transform="translate(-16.478 0)" fill="#253680"/>
    <path id="Path_42" data-name="Path 42" d="M52.237,17.6l.012,0L48.585,8.041l0-.008-1.825-4.76a2.361,2.361,0,0,0-.675-1.005l0,0a1.93,1.93,0,0,0-1.905-.422,2.085,2.085,0,0,0-1.139,2.708l4.827,13.806h0a.222.222,0,0,1-.138.286.2.2,0,0,1-.074.012.226.226,0,0,1-.212-.151L44.261,9.393l-.982,4.072L46.17,20.08a2.755,2.755,0,0,1,1.923.173L54.561,23.4c.087.041.178.088.273.14C54.091,21.707,53.076,19.431,52.237,17.6Z" transform="translate(-11.326 -1.052)" fill="#253680"/>
    <path id="Path_43" data-name="Path 43" d="M72.32,57.375a5.413,5.413,0,0,0-.745-.43" transform="translate(-28.537 -34.188)" fill="#253680"/>
    <path id="Path_44" data-name="Path 44" d="M41.371,54.088l-6.453-3.145a2.088,2.088,0,0,1-1.133-2.711,1.861,1.861,0,0,1,1.163-.979,2.291,2.291,0,0,1,1.648.133l6.468,3.153a3.38,3.38,0,0,1,1.618,1.367,2.684,2.684,0,0,1-.005,1.58c-.143.447-.824,1.945-1.024,2.357s-2.768,5.5-4.892,6.823l-.07,5.1H28.247l.069-5.092c-.99-.136-4.291-13.958-4.274-15.579a1.358,1.358,0,0,1,.459-.83l2.867,6.612a2.413,2.413,0,0,0,4.607-1.1,2.527,2.527,0,0,0,1.757.741,2.22,2.22,0,0,0,1.718-.807l5.715,2.784a.212.212,0,0,0,.1.022.225.225,0,0,0,.109-.422" transform="translate(0 -27.775)" fill="#253680"/>
  </g>
</svg>
