<svg xmlns="http://www.w3.org/2000/svg" width="34.56" height="32.226" viewBox="0 0 34.56 32.226">
  <g id="Religion_icon" transform="translate(-17.324 -6.405)">
    <g id="g2935" transform="translate(17.324 6.405)">
      <g id="g2970" transform="translate(9.401 0)">
        <path id="path2897" d="M130.4,18.539H116.388l7.006-12.134Zm-1.745-.975H118.133l5.261-9.11Z" transform="translate(-116.388 -6.405)" fill="#253680" fill-rule="evenodd"/>
        <path id="use2905" d="M130.4-134.275H116.388l7.006,12.134Zm-1.745.975H118.133l5.261,9.11Z" transform="translate(-116.388 138.261)" fill="#253680" fill-rule="evenodd"/>
      </g>
      <g id="g2937" transform="translate(0 10.74)">
        <rect id="rect2907" width="1.946" height="14.628" transform="translate(3.993)" fill="#253680"/>
        <rect id="rect2909" width="1.946" height="9.931" transform="translate(9.931 3.494) rotate(90)" fill="#253680"/>
      </g>
      <path id="path2911" d="M110.307,220.887s1-4.318,5.219-4.318a5.8,5.8,0,0,1,5.741,5.456,2.892,2.892,0,0,1-2.752,3.084,2.587,2.587,0,0,1-2.847-2.467c0-1.376-1.091-3.416-2.894-3.416A2.925,2.925,0,0,0,110.307,220.887Zm11.53,1.281A6.168,6.168,0,1,1,115.668,216,6.17,6.17,0,0,1,121.836,222.168Zm-2.467,0a.854.854,0,1,1-.854-.854A.854.854,0,0,1,119.369,222.168Zm-5.694,0a.854.854,0,1,1-.854-.854A.854.854,0,0,1,113.675,222.168Z" transform="translate(-100.753 -196.11)" fill="#253680" fill-rule="evenodd"/>
      <g id="g2912" transform="translate(20.863 10.953)">
        <path id="path2898" d="M254.74,142.794l-1.139-1.678-1.969.485,1.244-1.6-1.07-1.723,1.908.688,1.308-1.55-.065,2.027,1.878.765-1.948.565Z" transform="translate(-249.133 -135.242)" fill="#253680"/>
        <path id="path2903" d="M230.95,120.848c0,4.425,2.927,7.362,6.757,7.362a6.943,6.943,0,0,0,6.94-6.94c0-3.831-2.82-6.757-7.362-6.757,1.965,0,5.308,2.75,5.308,5.913a5.732,5.732,0,0,1-5.73,5.73C233.7,126.155,230.95,123.737,230.95,120.848Z" transform="translate(-230.95 -114.513)" fill="#253680"/>
      </g>
    </g>
  </g>
</svg>
